<svg viewBox="0 0 24 23" fill="none" xmlns="http://www.w3.org/2000/svg">
<path d="M23.9818 11.4844C24.0182 11.4739 23.989 11.4141 23.9879 11.3861C23.9267 9.16845 22.681 7.28585 20.6011 6.32129C19.335 5.73411 18.1473 5.63897 16.7644 5.86148C16.7258 5.86782 16.6447 5.91327 16.6133 5.88156C16.5846 5.8525 16.6927 5.84245 16.7087 5.83452C18.8603 4.75475 19.0334 1.82621 17.0175 0.519699C15.1868 -0.667362 12.5676 0.278166 12.0812 2.35103C12.0597 2.443 12.0542 2.55081 12.036 2.64489L12.0007 2.54024C11.9522 1.74481 12.0404 0.90975 11.9952 0.114325C11.993 0.0762711 11.9836 0.0408573 11.9803 0.00333214C11.8033 -0.000896454 11.6274 0.00227547 11.4515 0.0170746C8.87806 0.228483 6.70825 2.07039 6.14525 4.47094C5.94288 5.33401 5.9892 6.08557 6.12265 6.94548C6.12871 6.98512 6.18054 7.03216 6.12871 7.07127C6.08184 6.98988 6.03938 6.90161 5.98921 6.82233C4.80973 4.9614 1.99201 4.80232 0.638297 6.56547C-0.565988 8.1336 0.000867051 10.3693 1.8299 11.2059C2.14366 11.3497 2.39896 11.3983 2.73808 11.4591C2.76068 11.4633 2.76179 11.4506 2.75903 11.485L0.0146499 11.5172C-0.0250518 11.7524 0.0251273 11.9966 0.0565578 12.2318C0.51423 15.6117 3.75047 17.7532 7.22878 17.137C7.28282 17.1275 7.31701 17.0836 7.37656 17.1137C7.38593 17.156 7.32528 17.1449 7.29495 17.1613C5.59881 18.0709 5.00935 20.0994 6.12982 21.6712C7.62414 23.7684 11.0854 23.2763 11.8573 20.8467C11.9097 20.6823 11.934 20.5185 11.9671 20.3509L12.0084 20.4762V22.9735C12.0206 22.9925 12.036 22.992 12.0558 22.9941C12.1898 23.0094 12.3999 22.9914 12.5394 22.9803C14.8333 22.798 16.8658 21.2843 17.6439 19.2183C18.042 18.1613 18.0646 17.1639 17.8804 16.0641C17.8732 16.0218 17.8363 15.9795 17.8534 15.9246C17.8854 15.9198 17.8854 15.9367 17.8936 15.9584C17.9857 16.2041 18.3304 16.6159 18.5344 16.8045C20.0028 18.1613 22.3998 17.8785 23.4977 16.2406C24.6496 14.5213 23.7011 12.0727 21.6063 11.5944C21.4878 11.5674 21.3664 11.5521 21.2451 11.5378C21.2336 11.4966 21.2953 11.513 21.3289 11.5061C21.3449 11.5024 21.3703 11.4855 21.3764 11.4855H23.9818V11.4844ZM10.1981 15.6281C11.0622 14.8305 11.698 13.6889 11.9092 12.5579C11.918 12.5119 11.9367 12.1583 11.9748 12.1583C12.0095 12.2006 11.9952 12.2793 12.0101 12.3359V19.287L11.982 19.4514C11.9544 19.4461 11.9593 19.4234 11.9544 19.4054C11.9015 19.2077 11.8893 19.046 11.8116 18.842C11.3335 17.5873 10.0101 16.7432 8.61172 16.8225C8.51964 16.8278 8.41763 16.8785 8.31506 16.8352C8.31837 16.7749 8.40053 16.7797 8.4485 16.7586C9.08373 16.48 9.6947 16.0926 10.1987 15.6281H10.1981ZM20.2939 11.5373C19.2297 11.6573 18.2796 12.3761 17.8424 13.3031C17.6069 13.802 17.5286 14.3052 17.5782 14.8474C17.581 14.8749 17.5937 15.0366 17.5441 15.0255C17.3919 14.7164 17.2402 14.4024 17.0467 14.1149C16.1777 12.8237 14.6712 11.8296 13.0738 11.5806C12.9635 11.5637 12.8444 11.5685 12.7363 11.5468C12.7186 11.5431 12.6916 11.5426 12.6982 11.5177C12.7038 11.4976 12.8532 11.4897 12.8835 11.4839H20.1081C20.1594 11.4913 20.2272 11.4934 20.2746 11.5093C20.2945 11.5161 20.2978 11.5056 20.2939 11.5373ZM11.3059 11.4844C11.2977 11.4929 11.1482 11.5103 11.1207 11.5119H3.89604C3.84862 11.5077 3.79789 11.5019 3.75157 11.4913C3.73448 11.4876 3.70195 11.4913 3.71077 11.4654C3.71739 11.4453 3.9749 11.4247 4.01735 11.4157C5.49349 11.1071 6.53731 9.65152 6.44026 8.22821C6.4364 8.17483 6.41159 8.13149 6.41159 8.06912C6.41159 8.01944 6.4364 7.90528 6.48106 8.00358C6.96576 9.07701 7.71182 9.94749 8.738 10.5838C9.35061 10.9638 10.1959 11.3074 10.9172 11.4152C11.0297 11.4321 11.1592 11.4247 11.2684 11.449C11.2817 11.4517 11.3285 11.4617 11.3065 11.4844H11.3059ZM13.8887 7.30065C12.9888 8.10664 12.2764 9.30375 12.0812 10.4765C12.0636 10.5822 12.0652 10.707 12.0481 10.8148C12.0382 10.8317 12.0305 10.8444 12.015 10.8233C12.0084 10.8143 11.9814 10.6652 11.9803 10.6451C11.9726 10.5357 11.9946 10.4311 11.9952 10.328C12.0139 8.22081 12.0206 6.10513 11.9952 3.99791C11.9941 3.91599 11.9737 3.83565 11.9803 3.74686C11.9825 3.72096 12.0106 3.54285 12.0294 3.54285C12.0564 3.55871 12.0459 3.5809 12.0503 3.60205C12.0801 3.74792 12.0939 3.87265 12.1402 4.01799C12.5642 5.33718 13.9522 6.25999 15.393 6.17225C15.4388 6.16961 15.6566 6.10883 15.6759 6.16591C15.6924 6.21559 15.5932 6.22035 15.5562 6.2362C14.9337 6.50734 14.3872 6.85404 13.8887 7.30065Z" fill="#D400B8" style="fill:#D400B8;fill:color(display-p3 0.8317 0.0000 0.7202);fill-opacity:1;"/>
</svg>
