<svg viewBox="0 0 47 22" fill="none" xmlns="http://www.w3.org/2000/svg">
<path d="M44.7409 15.8637L45.0098 15.6066C46.3336 14.16 47.2015 12.2854 46.9595 10.2593C46.4208 5.74417 40.7307 3.11353 36.9656 1.91858C34.1685 1.03081 31.068 0.442585 28.1526 0.197495C21.8269 -0.33408 14.7603 0.151747 8.78853 2.33795C4.6245 3.86296 -1.06126 7.00884 0.171174 12.4172C1.13153 16.6273 6.73447 19.0564 10.4017 20.1914C16.68 22.1358 24.2294 22.4179 30.7325 21.4877C35.2944 20.8341 41.306 19.161 44.7388 15.8637H44.7409ZM22.997 20.8483C22.1969 19.9365 22.0377 18.3364 21.7495 17.1937C21.6979 16.9878 22.1592 17.0423 22.2947 17.0249C23.1884 16.9105 24.1445 16.8974 25.0349 17.0554C25.1177 17.0695 25.2059 17.0935 25.2048 17.1981C25.0511 18.0379 24.8983 18.8876 24.608 19.6947C24.4456 20.1457 24.0703 21.0585 23.553 21.1598C23.3874 21.1925 23.1045 20.9714 22.9981 20.8494L22.997 20.8483ZM22.5238 21.0008C22.4259 21.0498 22.3733 20.9823 22.2829 20.9583C21.0483 20.6261 19.9288 19.6511 19.1782 18.6294C19.0986 18.5215 19.0351 18.3843 18.9437 18.2677C18.8846 18.1915 18.7792 18.1882 18.8652 18.0433C18.9136 17.9627 19.4965 17.7503 19.6255 17.697C20.1159 17.4965 20.6816 17.2754 21.1989 17.1665C21.2602 17.1534 21.5785 17.1196 21.6054 17.1643C21.6129 17.2645 21.6248 17.3669 21.643 17.466C21.8011 18.3015 21.928 19.1631 22.1657 19.9866C22.2646 20.3298 22.398 20.6664 22.5227 20.9997L22.5238 21.0008ZM26.0275 20.3287C25.6597 20.5727 25.2758 20.7971 24.8424 20.9387C24.7499 20.9692 24.637 20.9616 24.5478 21.0236L24.4596 20.9866C24.5392 20.7796 24.6349 20.5727 24.7026 20.3624C25.0059 19.43 25.1618 18.4246 25.3403 17.4682C25.3575 17.3778 25.3586 17.2743 25.3737 17.1817C25.4178 17.0673 25.7727 17.2177 25.8512 17.2362C26.4663 17.38 27.1266 17.5771 27.7041 17.8375C27.7751 17.8691 28.0138 17.9824 28.0601 18.0205C28.2149 18.1479 27.9601 18.368 27.8773 18.4867C27.3439 19.2601 26.8104 19.8069 26.0254 20.3287H26.0275ZM17.5952 20.1381C17.6081 20.1468 17.6156 20.1827 17.6328 20.1936L18.3297 20.6054C18.363 20.6326 18.3609 20.6326 18.3297 20.6598C18.2469 20.7317 18.1436 20.6457 18.0404 20.6261C14.6388 19.9834 11.0878 18.7056 8.47558 16.3713C7.08936 15.1317 5.91177 13.5402 5.61818 11.6405C5.60528 11.5566 5.56871 11.3126 5.59882 11.2516C5.65582 11.1318 5.80208 11.1993 5.89349 11.1982C8.16155 11.1961 10.4296 11.1928 12.6977 11.1982C12.8257 11.1982 12.9719 11.1133 13.0042 11.3213C13.0429 11.5697 13.0085 11.9379 13.0343 12.2167C13.3365 15.4421 14.9657 18.3244 17.5952 20.1381ZM38.1809 16.6273C35.7235 18.6686 32.6693 19.8483 29.5883 20.5182C29.3592 20.5683 28.9591 20.6947 28.7462 20.7023C28.6967 20.7045 28.6569 20.7056 28.6258 20.6598C28.6172 20.6163 28.6602 20.6032 28.6871 20.5868C30.2389 19.6849 31.5315 18.4355 32.4532 16.8854C33.3286 15.4116 33.8727 13.4988 33.9749 11.7821C33.9846 11.6263 33.9093 11.2277 34.0824 11.1808C36.4161 11.2113 38.753 11.1961 41.0877 11.1982C41.1792 11.1982 41.3243 11.1318 41.3824 11.2516C41.3996 11.2876 41.376 11.5359 41.3673 11.5904C41.049 13.6502 39.7284 15.3408 38.1798 16.6273H38.1809ZM29.2355 19.3832C28.6795 19.7644 28.102 20.0651 27.4901 20.3254C27.3342 20.3919 27.189 20.4964 27.0148 20.5106C26.9438 20.4278 27.218 20.2394 27.2675 20.1816C27.4514 19.9659 27.6138 19.7176 27.817 19.5139L28.5741 18.3168C28.7935 18.368 29.0022 18.5455 29.1947 18.6708C29.2968 18.7372 29.3936 18.8233 29.4796 18.8777C29.5452 18.9181 29.7485 18.9289 29.6625 19.0684C29.6528 19.0836 29.4173 19.2688 29.3775 19.2982C29.3431 19.3233 29.2839 19.3516 29.2355 19.3854V19.3832ZM19.9697 20.4834C19.8697 20.516 19.817 20.4409 19.7524 20.418C19.0437 20.1609 18.2092 19.7263 17.5909 19.2851C17.5328 19.2437 17.3112 19.0749 17.3069 19.0259C17.2951 18.917 17.4037 18.93 17.4672 18.8886C17.7242 18.7209 17.9683 18.5248 18.2404 18.3647C18.2899 18.3353 18.3555 18.2884 18.4103 18.3179C18.8125 18.9551 19.1868 19.6141 19.7277 20.1435C19.7621 20.2993 19.9643 20.3254 19.9697 20.4834ZM44.0957 15.538C41.4362 17.7732 37.9109 19.0302 34.5933 19.869C34.4857 19.8962 34.4201 20.0095 34.2997 19.8712C34.361 19.796 34.4664 19.8233 34.5395 19.7884C37.7313 18.246 40.9963 15.8484 41.4996 11.9978C41.5308 11.7603 41.5265 11.5054 41.5308 11.2658L41.5921 11.1895C43.216 11.2037 44.841 11.1972 46.4659 11.1993C46.5573 11.1993 46.7025 11.1329 46.7606 11.2527C46.7939 11.3213 46.6778 11.8453 46.6466 11.9553C46.2509 13.3964 45.2077 14.6023 44.0946 15.5391L44.0957 15.538ZM12.6568 19.9115C12.5611 19.9463 12.4912 19.869 12.4267 19.8581C11.2846 19.6609 9.94783 19.1882 8.83369 18.7862C5.76874 17.6817 0.872347 15.2177 0.236773 11.5904C0.22817 11.5392 0.204508 11.2865 0.220639 11.2516C0.278712 11.1318 0.423893 11.1982 0.515304 11.1982C2.06606 11.1961 3.6179 11.2124 5.16866 11.1982C5.27512 11.1982 5.40632 11.122 5.44934 11.2647C5.45794 14.6339 7.96476 17.2536 10.6565 18.844C11.1942 19.1621 11.7642 19.442 12.3245 19.6871C12.4321 19.7339 12.4643 19.8908 12.6547 19.8298V19.9115H12.6568ZM17.0585 18.759C17.0402 18.7754 17.0198 18.7852 16.9951 18.7884C16.8961 18.7906 16.8165 18.6555 16.7499 18.6043C14.741 17.0445 13.2279 14.0478 13.1128 11.4847C13.1096 11.4205 13.0977 11.2473 13.1408 11.2113C13.2375 11.1471 13.3214 11.1993 13.4225 11.1993C14.4356 11.1961 15.4497 11.1961 16.4627 11.1993C16.5671 11.1993 16.6617 11.1416 16.7585 11.2244C16.7585 11.3725 16.7918 11.5316 16.7993 11.6732C16.8359 12.4074 16.8757 13.1481 16.9897 13.8768C17.0929 14.5402 17.2532 15.2766 17.4457 15.9203C17.6382 16.5641 17.9156 17.2438 18.1985 17.8832C18.1985 18.0455 17.7511 18.1828 17.6565 18.3168C17.4855 18.4246 17.2672 18.5564 17.1069 18.6871C17.0833 18.7067 17.0757 18.7449 17.0596 18.7601L17.0585 18.759ZM30.2023 18.6479C30.1195 18.722 30.0421 18.8026 29.9227 18.7612L28.7871 17.9083C29.0559 17.2525 29.3366 16.6011 29.5388 15.9192C29.9625 14.4966 30.1098 13.0914 30.1851 11.6176C30.1916 11.488 30.2238 11.354 30.226 11.2233C30.3217 11.1405 30.4163 11.1993 30.5217 11.1982C31.5853 11.195 32.664 11.1601 33.7233 11.1743C33.9814 11.1775 33.8588 11.4804 33.8437 11.6459C33.5985 14.4552 32.2725 16.8179 30.2034 18.6468L30.2023 18.6479ZM18.591 17.7013C18.5652 17.6937 18.5458 17.6741 18.5329 17.6501C18.3727 17.2525 18.1415 16.892 17.9748 16.4998C17.3854 15.111 17.0746 13.5783 16.9037 12.0838C16.8757 11.8344 16.9402 11.549 16.8854 11.2963C16.9391 11.1198 17.0424 11.1982 17.1585 11.1993C17.7877 11.2048 18.4383 11.1427 19.0491 11.2723C19.7127 11.4128 20.3816 11.6035 20.9935 11.9172C21.087 11.9651 21.2269 11.9662 21.2559 12.1165C21.2709 12.1939 21.2301 12.2429 21.2333 12.3006C21.2935 13.5936 21.3559 14.831 21.4753 16.1131C21.4925 16.2929 21.5323 16.4944 21.5161 16.6719C21.4753 16.7547 20.9903 16.8135 20.8795 16.844C20.3482 16.9889 19.7901 17.1806 19.2793 17.4018C19.1438 17.4606 18.6942 17.7329 18.591 17.7024V17.7013ZM28.4311 17.6708C28.3375 17.7645 28.0407 17.5445 27.9332 17.4954C27.4912 17.2917 27.0987 17.1567 26.6362 17.0118C26.5954 16.9987 26.5609 16.953 26.5147 16.9443L25.478 16.6806C25.4253 16.6055 25.4963 16.2264 25.507 16.112C25.5877 15.2624 25.6587 14.4106 25.6942 13.5511C25.7135 13.0751 25.7383 12.5936 25.7264 12.1154C25.7372 12.0631 25.8006 11.9891 25.8469 11.9629C26.4168 11.6394 27.3008 11.4041 27.9332 11.2712C28.5655 11.1383 29.1947 11.2037 29.8238 11.1982C29.9399 11.1982 30.0432 11.1198 30.0969 11.2952C30.0292 13.2396 29.6259 15.209 28.7935 16.9628C28.7086 17.1414 28.5999 17.3157 28.5075 17.49C28.4817 17.539 28.4601 17.6414 28.43 17.6708H28.4311ZM23.4078 16.4769L21.6904 16.6447C21.6871 16.6066 21.6979 16.5597 21.6893 16.5238C21.6108 16.2199 21.5656 15.7275 21.5312 15.4029C21.4301 14.4324 21.443 13.4651 21.3677 12.4912C21.3581 12.3714 21.2462 12.2494 21.386 12.1546C21.4893 12.1154 21.4699 12.1949 21.5151 12.232C21.7248 12.4019 21.913 12.5163 22.0936 12.7363C22.7851 13.5718 23.2648 15.2624 23.4035 16.3386C23.41 16.3844 23.4207 16.4312 23.4067 16.478L23.4078 16.4769ZM25.293 16.6436C25.0134 16.5935 24.7241 16.6109 24.4477 16.587C24.3864 16.5815 24.3294 16.5412 24.2574 16.5347C24.1595 16.526 23.6111 16.5347 23.5756 16.4769L23.9014 14.8397C24.2208 13.7319 24.565 12.9575 25.4683 12.232C25.5135 12.1949 25.5006 12.1111 25.6253 12.1492C25.706 12.1743 25.6167 12.3627 25.6146 12.4084C25.5328 13.7178 25.5597 15.0914 25.3457 16.3833C25.3317 16.465 25.264 16.5412 25.293 16.6436ZM6.88503 6.46746C6.09029 7.59596 5.54183 8.97392 5.45149 10.3671C5.43966 10.5501 5.5343 10.8322 5.27727 10.817L0.3142 10.8039C0.286239 10.7952 0.233544 10.7604 0.220639 10.7342C0.190527 10.6721 0.294843 10.1765 0.321729 10.0741C1.04334 7.36612 4.01688 5.35638 6.38496 4.20609C8.19274 3.32812 10.1177 2.70613 12.0546 2.21486C12.1912 2.18001 12.389 2.08959 12.5331 2.07217C12.6106 2.06345 12.745 2.10594 12.6353 2.14951C10.5716 2.97737 8.18199 4.6222 6.88395 6.46746H6.88503ZM15.1937 4.09825C13.8796 5.81824 13.1558 8.01643 13.0074 10.1765C12.9923 10.3911 13.1074 10.8246 12.8063 10.817L5.69239 10.8039C5.66442 10.7952 5.61173 10.7604 5.59882 10.7342C5.58162 10.6983 5.60528 10.451 5.61388 10.3954C6.01609 7.78114 8.06691 5.6799 10.1737 4.31175C12.588 2.74535 15.4217 1.85867 18.2361 1.31075C18.5103 1.36195 18.2329 1.39463 18.1759 1.4284C17.1241 2.0591 15.9422 3.1168 15.1927 4.09825H15.1937ZM17.0607 3.22355C17.0725 3.23117 17.0811 3.2791 17.1058 3.29871C17.3349 3.4828 17.6199 3.67561 17.864 3.839C17.9468 3.89564 18.2038 3.98496 18.1963 4.09933C17.7877 5.01543 17.4392 5.9642 17.2134 6.94674C16.9875 7.92928 16.9058 8.84102 16.7972 9.79306C16.7628 10.0904 16.8122 10.4564 16.7585 10.7614C16.695 10.8115 16.6187 10.8105 16.5434 10.8159C15.4959 10.8867 14.371 10.7593 13.315 10.8159C13.0848 10.7963 13.1031 10.7451 13.1128 10.5272C13.2225 8.04148 14.7517 4.90868 16.7036 3.38041C16.7811 3.3194 16.9725 3.16908 17.0617 3.22355H17.0607ZM21.4968 5.2932C21.5635 5.34222 21.486 5.77249 21.4764 5.87379C21.3935 6.74958 21.2903 7.68746 21.2602 8.5687C21.2462 8.97392 21.3011 9.45647 21.2602 9.84753C21.243 10.0196 21.0946 10.0175 20.9935 10.0708C20.4827 10.341 19.8073 10.5643 19.2459 10.6972C18.6437 10.8399 17.6973 10.8769 17.0779 10.8192C16.9832 10.8105 16.9101 10.7985 16.8854 10.6917C16.9155 8.94886 17.2575 7.26264 17.9275 5.65811C17.95 5.60365 17.9511 5.54156 17.9748 5.48818L18.5491 4.31393C18.6663 4.24095 19.1255 4.54159 19.2642 4.6015C19.7352 4.80629 20.3074 5.00236 20.8021 5.1407C20.9075 5.17011 21.4538 5.26488 21.4957 5.29538L21.4968 5.2932ZM28.4322 4.31502C28.8688 5.17338 29.2689 6.0568 29.5399 6.99141C29.813 7.93473 29.97 8.9347 30.0797 9.90308C30.1077 10.1525 30.0432 10.4379 30.098 10.6906L29.9786 10.8105C29.4517 10.7789 28.8333 10.8736 28.3171 10.817C27.6805 10.7473 26.5588 10.3715 25.9899 10.0697C25.891 10.0175 25.7673 10.0283 25.7275 9.8704C25.7135 9.45647 25.7382 9.03709 25.7243 8.62316C25.6963 7.77569 25.5995 6.89991 25.5146 6.05788C25.4898 5.81606 25.4812 5.57424 25.4576 5.33241C25.4683 5.30082 25.7458 5.20497 25.8028 5.19081C26.5534 4.99256 27.1696 4.82807 27.8934 4.50346C28.0106 4.45118 28.3268 4.21154 28.4333 4.31502H28.4322ZM31.7294 4.95116C32.8307 6.3814 33.5662 8.02297 33.7964 9.84317C33.8265 10.0806 33.9007 10.4575 33.8717 10.6961C33.8684 10.719 33.8717 10.7429 33.8577 10.7636L33.6695 10.8181C32.6145 10.7495 31.4563 10.9052 30.4142 10.8181C30.3583 10.8137 30.2367 10.8028 30.2174 10.7451C30.2088 10.719 30.1883 10.4292 30.1862 10.3682C30.1378 9.39112 30.069 8.42382 29.8851 7.4598C29.8238 7.13955 29.7474 6.80296 29.6646 6.48488C29.5721 6.12869 29.4259 5.78556 29.3355 5.42936L28.7935 4.05359C29.1398 3.77364 29.5313 3.57866 29.8797 3.29871C29.9044 3.2791 29.913 3.23008 29.9249 3.22355C30.055 3.14512 30.1776 3.33792 30.2593 3.40328C30.8207 3.85861 31.295 4.38364 31.7316 4.95007L31.7294 4.95116ZM40.0102 7.23867C40.578 8.01098 41.0802 8.92272 41.2835 9.88347C41.3168 10.0392 41.4018 10.5011 41.3996 10.6394C41.3996 10.7113 41.391 10.7484 41.3265 10.7854L34.0642 10.7952C34.0437 10.7821 34.0147 10.7691 34.0018 10.7495C33.948 10.6721 33.9846 10.2549 33.9771 10.1209C33.7813 6.6156 31.9155 3.40873 28.9849 1.56129C28.9312 1.52752 28.5795 1.37611 28.6268 1.31184C28.6677 1.30531 28.701 1.2857 28.7441 1.28679C28.8376 1.28896 29.1108 1.35106 29.2248 1.37284C32.95 2.07435 37.6862 4.07537 40.0091 7.23867H40.0102ZM45.6615 8.02187C46.1777 8.72011 46.5918 9.52837 46.7466 10.3954C46.7531 10.4303 46.7767 10.6427 46.7757 10.6656C46.7649 10.7919 46.4896 10.7691 46.3874 10.817H41.7061C41.6373 10.817 41.5459 10.8028 41.533 10.72C41.519 6.88683 38.3594 4.12222 35.2396 2.55255C35.0062 2.4349 34.7686 2.3129 34.5352 2.20397C34.4599 2.16912 34.3621 2.1811 34.3018 2.11465C34.3459 2.05692 34.4384 2.06563 34.5019 2.07544C34.8084 2.12337 35.2783 2.27151 35.5934 2.35865C38.9057 3.27583 43.5558 5.17011 45.6637 8.02187H45.6615ZM21.5108 9.76256C21.4796 9.78653 21.4269 9.91397 21.3484 9.82901C21.2699 9.74404 21.3624 9.66453 21.3688 9.57738C21.3839 9.38458 21.3581 9.17216 21.3667 8.97609C21.4043 8.09377 21.4839 7.22451 21.5764 6.35635C21.6119 6.0252 21.6129 5.68861 21.7033 5.36836L23.3519 5.49799L23.4089 5.55136C23.3368 5.93261 23.2788 6.32911 23.1895 6.70928C22.9024 7.92928 22.5303 8.98481 21.5118 9.76147L21.5108 9.76256ZM25.6361 9.82901C25.5576 9.91397 25.5038 9.78544 25.4737 9.76256C24.4563 8.98699 24.0832 7.93037 23.796 6.71037C23.7068 6.33021 23.6487 5.93261 23.5766 5.55245C23.7283 5.38906 23.9961 5.48383 24.1714 5.47293C24.4617 5.45551 24.8145 5.36292 25.1199 5.34331C25.165 5.34004 25.2554 5.32915 25.2823 5.36945C25.2887 5.37926 25.3414 5.57532 25.3468 5.60365C25.4887 6.40536 25.5146 7.39771 25.5619 8.21794C25.5877 8.66455 25.5823 9.14493 25.6156 9.57956C25.6221 9.66561 25.7114 9.75058 25.6361 9.83118V9.82901ZM22.6776 5.03613C22.6346 5.03177 22.5862 4.99582 22.5346 4.99037C22.3431 4.97077 22.0764 4.96968 21.8968 4.92829C21.8517 4.9174 21.8108 4.88799 21.7818 4.85204C21.8097 4.66904 21.8216 4.48059 21.8538 4.29759C21.9915 3.51003 22.4883 1.46434 23.1282 0.986147C23.382 0.79661 23.5809 0.788979 23.8391 0.974159C24.0767 1.14518 24.223 1.46979 24.3714 1.71488L24.58 2.18437L25.0166 3.73007L25.2081 4.83352C25.1887 4.87274 25.1543 4.91304 25.1124 4.92829C24.9704 4.97731 24.6908 4.97294 24.5284 4.99037C23.9767 5.05137 23.2379 5.09277 22.6787 5.03722L22.6776 5.03613ZM21.6054 4.82044C21.5764 4.86728 21.3355 4.83134 21.2795 4.81827C20.8214 4.71479 20.3213 4.55466 19.874 4.39018C19.646 4.3063 19.1179 4.10914 18.9384 3.97624C18.9179 3.96099 18.8932 3.95011 18.8792 3.92614C18.8104 3.78453 19.1438 3.51003 19.1771 3.35644C19.875 2.39024 20.9881 1.44038 22.1195 1.05368C22.1797 1.03299 22.4958 0.94911 22.5227 0.986147C22.4582 1.19856 22.3539 1.40988 22.2797 1.62447C22.0356 2.32815 21.87 3.07758 21.7463 3.80741C21.6893 4.14509 21.6775 4.48712 21.6054 4.82154V4.82044ZM28.1375 3.79543C28.2418 3.97189 27.9332 4.04051 27.8504 4.07973C27.2256 4.37384 26.4846 4.66032 25.806 4.81391C25.7296 4.83134 25.4629 4.87055 25.4113 4.82807C25.3296 4.76271 25.2833 4.13964 25.2586 4.00239C25.1328 3.31396 24.9693 2.62989 24.808 1.95344L24.4596 1.02645C24.4746 0.94911 24.7714 1.03189 24.837 1.0515C25.6748 1.30857 26.6405 2.01008 27.2299 2.65821C27.546 3.00678 27.7794 3.38585 28.0633 3.74859C28.0837 3.77364 28.1311 3.78235 28.1375 3.79433V3.79543ZM18.8222 2.98173C18.7265 3.12878 18.6566 3.30197 18.5673 3.44576C18.5361 3.49478 18.4092 3.68214 18.3695 3.68105L17.3338 3.04164L17.3198 2.91746C17.4123 2.87062 17.4984 2.7508 17.5693 2.6996C18.0511 2.34994 18.7233 2.0177 19.2621 1.77915C19.4341 1.7029 19.6664 1.56891 19.8331 1.51336C19.8697 1.50138 19.9073 1.4894 19.9428 1.51445C19.9912 1.55475 19.9686 1.5602 19.9428 1.59724C19.8966 1.66477 19.7589 1.75191 19.6987 1.82054C19.4148 2.14515 19.0588 2.61681 18.8211 2.98064L18.8222 2.98173ZM26.9062 1.50247C26.9309 1.34561 26.9997 1.46543 27.0664 1.4894C27.7547 1.73558 28.4419 2.07217 29.0548 2.47085C29.1796 2.55255 29.5538 2.79655 29.6356 2.89022C29.6754 2.93489 29.6947 2.96865 29.6625 3.02748C29.4226 3.14621 29.2097 3.34881 28.9849 3.48606C28.9419 3.51221 28.8892 3.51657 28.8494 3.53944C28.7785 3.57975 28.6612 3.71591 28.5731 3.66907C28.5032 3.63203 28.3064 3.22246 28.2451 3.12769C27.9052 2.59938 27.5009 2.06346 27.0653 1.62665C27.0126 1.57327 27.004 1.48831 26.9051 1.50247H26.9062Z" fill="#D400B8" style="fill:#D400B8;fill:color(display-p3 0.8317 0.0000 0.7202);fill-opacity:1;"/>
</svg>
