<svg viewBox="0.8 0.7 7 7" fill="none" xmlns="http://www.w3.org/2000/svg">
<path d="M6.69792 3.6224C6.69792 5.07869 5.08238 6.59535 4.53988 7.06377C4.48934 7.10177 4.42782 7.12232 4.36458 7.12232C4.30135 7.12232 4.23983 7.10177 4.18929 7.06377C3.64679 6.59535 2.03125 5.07869 2.03125 3.6224C2.03125 3.00356 2.27708 2.41006 2.71467 1.97248C3.15225 1.5349 3.74574 1.28906 4.36458 1.28906C4.98342 1.28906 5.57691 1.5349 6.0145 1.97248C6.45208 2.41006 6.69792 3.00356 6.69792 3.6224Z" stroke="#E13DCB" stroke-width="0.8" stroke-linecap="round" stroke-linejoin="round"/>
<path d="M4.36719 4.49805C4.85044 4.49805 5.24219 4.1063 5.24219 3.62305C5.24219 3.1398 4.85044 2.74805 4.36719 2.74805C3.88394 2.74805 3.49219 3.1398 3.49219 3.62305C3.49219 4.1063 3.88394 4.49805 4.36719 4.49805Z" stroke="#E13DCB" stroke-width="0.6" stroke-linecap="round" stroke-linejoin="round"/>
</svg>
