<svg viewBox="0 0 8 8" fill="none" xmlns="http://www.w3.org/2000/svg">
<path fill-rule="evenodd" clip-rule="evenodd" d="M3.52564 0.706543C5.02366 0.706543 6.27197 1.95486 6.27197 3.45289C6.27197 3.9418 6.10391 4.42396 5.86906 4.86082C5.63329 5.29938 5.32117 5.70886 5.01109 6.05747C4.70042 6.40677 4.38651 6.70085 4.14194 6.90862C4.01978 7.01239 3.91286 7.09639 3.83042 7.15588C3.78971 7.18525 3.75157 7.21108 3.71864 7.23085C3.70262 7.24045 3.68309 7.25153 3.66233 7.26113C3.65199 7.26588 3.63712 7.27228 3.61938 7.27793C3.60542 7.28239 3.57054 7.29285 3.52564 7.29285C3.48034 7.29285 3.44518 7.28222 3.43118 7.2777C3.41335 7.27193 3.39842 7.26548 3.38807 7.26068C3.36726 7.25096 3.34772 7.23982 3.3317 7.2301C3.29879 7.21016 3.26066 7.1841 3.21998 7.1545C3.13759 7.09462 3.03071 7.01005 2.90862 6.90559C2.66417 6.69656 2.35041 6.40096 2.03989 6.05073C1.72998 5.7012 1.41803 5.29134 1.18233 4.85381C0.947634 4.41816 0.779297 3.93796 0.779297 3.45289C0.779297 1.95486 2.02762 0.706543 3.52564 0.706543ZM3.52564 4.27309C3.07265 4.27309 2.70543 3.90588 2.70543 3.45289C2.70543 2.9999 3.07265 2.63268 3.52564 2.63268C3.97863 2.63268 4.34585 2.9999 4.34585 3.45289C4.34585 3.90588 3.97863 4.27309 3.52564 4.27309Z" fill="#641842"/>
</svg>
