<svg viewBox="0 0 8 8" fill="none" xmlns="http://www.w3.org/2000/svg">
<path fill-rule="evenodd" clip-rule="evenodd" d="M4.01894 2.3865C4.01894 3.20914 3.35206 3.87602 2.52942 3.87602C1.70678 3.87602 1.03989 3.20914 1.03989 2.3865C1.03989 1.56386 1.70678 0.896973 2.52942 0.896973C3.35206 0.896973 4.01894 1.56386 4.01894 2.3865ZM2.52942 4.37252C1.15835 4.37252 0.046875 5.484 0.046875 6.85506C0.046875 6.99215 0.158022 7.10332 0.295129 7.10332H4.76371C4.90081 7.10332 5.01196 6.99215 5.01196 6.85506C5.01196 5.484 3.90049 4.37252 2.52942 4.37252ZM6.74979 7.10332H5.59665C5.62009 7.02467 5.63265 6.94131 5.63265 6.85506C5.63265 5.84164 5.14686 4.9417 4.39546 4.37537C4.43523 4.37348 4.47525 4.37252 4.51549 4.37252C5.88656 4.37252 6.99805 5.484 6.99805 6.85506C6.99805 6.99215 6.88688 7.10332 6.74979 7.10332ZM4.51549 3.87602C4.36568 3.87602 4.22104 3.85391 4.08465 3.81276C4.42927 3.43719 4.63962 2.93641 4.63962 2.3865C4.63962 1.83659 4.42927 1.33581 4.08464 0.960233C4.22104 0.919087 4.36568 0.896973 4.51549 0.896973C5.33812 0.896973 6.00503 1.56386 6.00503 2.3865C6.00503 3.20914 5.33812 3.87602 4.51549 3.87602Z" fill="#641842"/>
</svg>
