<svg width="8" height="8" viewBox="0 0 8 8" fill="none" xmlns="http://www.w3.org/2000/svg">
<path fill-rule="evenodd" clip-rule="evenodd" d="M3.52344 7.5C5.45644 7.5 7.02344 5.933 7.02344 4C7.02344 2.06701 5.45644 0.5 3.52344 0.5C1.59044 0.5 0.0234375 2.06701 0.0234375 4C0.0234375 5.933 1.59044 7.5 3.52344 7.5ZM3.83594 2.75C3.83594 2.57741 3.69603 2.4375 3.52344 2.4375C3.35085 2.4375 3.21094 2.57741 3.21094 2.75V4C3.21094 4.07311 3.23657 4.14389 3.28337 4.20006L4.53337 5.70005C4.64386 5.83265 4.84091 5.85055 4.9735 5.74005C5.10609 5.6296 5.12399 5.43253 5.01351 5.29994L3.83594 3.88686V2.75Z" fill="white"/>
</svg>
