<svg viewBox="0 0 79 27" fill="none" xmlns="http://www.w3.org/2000/svg">
<g opacity="0.5" clip-path="url(#clip0_1014_3979)">
<g clip-path="url(#clip1_1014_3979)">
<path d="M10.1068 8.96558C10.6788 8.96558 11.1734 9.06687 11.5904 9.26945C12.0075 9.47204 12.3531 9.74612 12.6272 10.0917C12.9013 10.4373 13.1039 10.8425 13.2349 11.3072C13.366 11.772 13.4316 12.2725 13.4316 12.8087C13.4316 13.631 13.2766 14.4115 12.9668 15.1503C12.6689 15.8772 12.2578 16.5148 11.7334 17.063C11.2091 17.5992 10.5894 18.0282 9.87444 18.35C9.15944 18.6598 8.38485 18.8147 7.55069 18.8147C7.44344 18.8147 7.25277 18.8087 6.97869 18.7968C6.71652 18.7968 6.41265 18.773 6.06706 18.7253C5.72148 18.6777 5.35206 18.6062 4.95881 18.5108C4.57748 18.4155 4.21402 18.2844 3.86844 18.1176L6.96081 5.12245L9.73144 4.69345L8.62319 9.3052C8.86152 9.19795 9.09985 9.11454 9.33819 9.05495C9.57652 8.99537 9.83273 8.96558 10.1068 8.96558ZM7.78306 16.6161C8.20015 16.6161 8.5934 16.5148 8.96281 16.3122C9.33223 16.1096 9.64802 15.8415 9.91019 15.5078C10.1843 15.1622 10.3988 14.775 10.5537 14.346C10.7086 13.917 10.7861 13.4701 10.7861 13.0053C10.7861 12.4333 10.6907 11.9865 10.5001 11.6647C10.3094 11.343 9.95785 11.1821 9.44544 11.1821C9.2786 11.1821 9.05815 11.2119 8.78406 11.2715C8.5219 11.331 8.28356 11.4562 8.06906 11.6468L6.88931 16.5446C6.96081 16.5565 7.0204 16.5684 7.06806 16.5803C7.12765 16.5922 7.18723 16.6042 7.24681 16.6161C7.3064 16.6161 7.3779 16.6161 7.46131 16.6161C7.54473 16.6161 7.65198 16.6161 7.78306 16.6161ZM16.7956 18.5645H14.1501L16.3844 9.1622H19.0478L16.7956 18.5645ZM18.0826 8.0182C17.7131 8.0182 17.3795 7.91095 17.0816 7.69645C16.7836 7.47004 16.6347 7.13041 16.6347 6.67758C16.6347 6.42733 16.6823 6.19495 16.7777 5.98045C16.8849 5.75404 17.022 5.56337 17.1888 5.40845C17.3556 5.24162 17.5463 5.11054 17.7608 5.0152C17.9872 4.91987 18.2256 4.8722 18.4758 4.8722C18.8452 4.8722 19.1789 4.98541 19.4768 5.21183C19.7747 5.42633 19.9237 5.75999 19.9237 6.21283C19.9237 6.46308 19.8701 6.70141 19.7628 6.92783C19.6675 7.14233 19.5364 7.33299 19.3696 7.49983C19.2027 7.65474 19.0061 7.77987 18.7797 7.8752C18.5652 7.97054 18.3328 8.0182 18.0826 8.0182ZM21.7684 6.82058L24.5391 6.39158L23.8598 9.1622H26.8271L26.2908 11.343H23.3414L22.5549 14.632C22.4834 14.906 22.4358 15.1622 22.4119 15.4006C22.4 15.6389 22.4298 15.8475 22.5013 16.0262C22.5847 16.193 22.7218 16.3241 22.9124 16.4195C23.1031 16.5148 23.3653 16.5625 23.6989 16.5625C23.9849 16.5625 24.259 16.5386 24.5212 16.491C24.7953 16.4314 25.0694 16.3539 25.3434 16.2586L25.5401 18.2963C25.1826 18.4274 24.7953 18.5406 24.3782 18.636C23.9611 18.7313 23.4666 18.779 22.8946 18.779C22.0723 18.779 21.4348 18.6598 20.9819 18.4215C20.5291 18.1712 20.2074 17.8375 20.0167 17.4205C19.826 16.9915 19.7426 16.5029 19.7664 15.9547C19.7903 15.4065 19.8737 14.8286 20.0167 14.2208L21.7684 6.82058ZM26.923 14.8107C26.923 14.0004 27.0541 13.2377 27.3162 12.5227C27.5784 11.8077 27.9538 11.1821 28.4424 10.6458C28.931 10.1096 29.5208 9.68654 30.212 9.3767C30.9151 9.06687 31.6956 8.91195 32.5536 8.91195C33.0899 8.91195 33.5665 8.96558 33.9836 9.07283C34.4126 9.16816 34.7999 9.29924 35.1455 9.46608L34.2339 11.5396C33.9955 11.4442 33.7453 11.3608 33.4831 11.2893C33.2329 11.2059 32.923 11.1642 32.5536 11.1642C31.6599 11.1642 30.9568 11.4681 30.4444 12.0758C29.932 12.6717 29.6757 13.488 29.6757 14.5247C29.6757 15.1325 29.8068 15.627 30.069 16.0083C30.3312 16.3777 30.8138 16.5625 31.5169 16.5625C31.8625 16.5625 32.1961 16.5267 32.5179 16.4552C32.8396 16.3837 33.1256 16.2943 33.3759 16.1871L33.5725 18.3142C33.2388 18.4453 32.8694 18.5585 32.4642 18.6538C32.071 18.7611 31.5884 18.8147 31.0164 18.8147C30.2775 18.8147 29.6519 18.7075 29.1395 18.493C28.6271 18.2785 28.204 17.9925 27.8704 17.635C27.5367 17.2655 27.2924 16.8365 27.1375 16.348C26.9945 15.8594 26.923 15.347 26.923 14.8107ZM38.7755 18.8147C38.1439 18.8147 37.5958 18.7194 37.131 18.5287C36.6663 18.338 36.279 18.0699 35.9691 17.7243C35.6712 17.3787 35.4448 16.9736 35.2899 16.5088C35.135 16.0322 35.0575 15.5078 35.0575 14.9358C35.0575 14.2208 35.1707 13.5058 35.3971 12.7908C35.6355 12.0758 35.9811 11.4323 36.4339 10.8603C36.8867 10.2883 37.4409 9.82358 38.0963 9.46608C38.7517 9.09666 39.5024 8.91195 40.3485 8.91195C40.9682 8.91195 41.5104 9.00729 41.9751 9.19795C42.4518 9.38862 42.8391 9.65674 43.137 10.0023C43.4469 10.3479 43.6792 10.759 43.8341 11.2357C43.9891 11.7005 44.0665 12.2188 44.0665 12.7908C44.0665 13.5058 43.9533 14.2208 43.7269 14.9358C43.5005 15.6508 43.1668 16.2943 42.7259 16.8663C42.285 17.4383 41.7309 17.909 41.0635 18.2785C40.4081 18.636 39.6454 18.8147 38.7755 18.8147ZM40.0983 11.1642C39.705 11.1642 39.3594 11.2774 39.0615 11.5038C38.7636 11.7302 38.5134 12.0162 38.3108 12.3618C38.1082 12.7074 37.9533 13.0887 37.846 13.5058C37.7507 13.911 37.703 14.2983 37.703 14.6677C37.703 15.2755 37.7984 15.7462 37.989 16.0798C38.1797 16.4016 38.5253 16.5625 39.0258 16.5625C39.419 16.5625 39.7646 16.4492 40.0625 16.2228C40.3604 15.9964 40.6107 15.7104 40.8133 15.3648C41.0159 15.0192 41.1648 14.6439 41.2601 14.2387C41.3674 13.8216 41.421 13.4284 41.421 13.059C41.421 12.4512 41.3257 11.9865 41.135 11.6647C40.9444 11.331 40.5988 11.1642 40.0983 11.1642ZM47.4309 18.5645H44.7854L47.0198 9.1622H49.6832L47.4309 18.5645ZM48.7179 8.0182C48.3485 8.0182 48.0148 7.91095 47.7169 7.69645C47.419 7.47004 47.2701 7.13041 47.2701 6.67758C47.2701 6.42733 47.3177 6.19495 47.4131 5.98045C47.5203 5.75404 47.6573 5.56337 47.8242 5.40845C47.991 5.24162 48.1817 5.11054 48.3962 5.0152C48.6226 4.91987 48.8609 4.8722 49.1112 4.8722C49.4806 4.8722 49.8143 4.98541 50.1122 5.21183C50.4101 5.42633 50.5591 5.75999 50.5591 6.21283C50.5591 6.46308 50.5054 6.70141 50.3982 6.92783C50.3028 7.14233 50.1718 7.33299 50.0049 7.49983C49.8381 7.65474 49.6415 7.77987 49.4151 7.8752C49.2006 7.97054 48.9682 8.0182 48.7179 8.0182ZM52.0106 9.5912C52.2131 9.53162 52.4336 9.46608 52.6719 9.39458C52.9222 9.31116 53.1963 9.23966 53.4942 9.18008C53.804 9.10858 54.1436 9.05495 54.5131 9.0192C54.8944 8.97154 55.3234 8.9477 55.8001 8.9477C57.2062 8.9477 58.1715 9.35287 58.6958 10.1632C59.2201 10.9735 59.3095 12.0818 58.9639 13.488L57.7484 18.5645H55.0851L56.2648 13.5952C56.3363 13.2854 56.3899 12.9875 56.4257 12.7015C56.4734 12.4035 56.4734 12.1473 56.4257 11.9328C56.378 11.7064 56.2648 11.5277 56.0861 11.3966C55.9192 11.2536 55.6571 11.1821 55.2996 11.1821C54.954 11.1821 54.6024 11.2178 54.2449 11.2893L52.5111 18.5645H49.8477L52.0106 9.5912ZM60.9907 12.1116H63.9758L64.7623 8.8047H67.1933L66.4068 12.1116H69.3919L68.8378 14.346H65.8527L65.0662 17.6528H62.6352L63.4217 14.346H60.4365L60.9907 12.1116ZM71.1501 12.1116H74.1352L74.9217 8.8047H77.3527L76.5662 12.1116H79.5513L78.9972 14.346H76.0121L75.2256 17.6528H72.7946L73.5811 14.346H70.596L71.1501 12.1116Z" fill="#FF83EE" style="fill:#FF83EE;fill:color(display-p3 1.0000 0.5144 0.9350);fill-opacity:1;"/>
</g>
</g>
<defs>
<clipPath id="clip0_1014_3979">
<rect width="81.25" height="26" fill="white" style="fill:white;fill-opacity:1;" transform="translate(0.1875 0.556641)"/>
</clipPath>
<clipPath id="clip1_1014_3979">
<rect width="81.25" height="26" fill="white" style="fill:white;fill-opacity:1;" transform="translate(0.1875 0.556641)"/>
</clipPath>
</defs>
</svg>
