<svg viewBox="0 0 78 19" fill="none" xmlns="http://www.w3.org/2000/svg">
<g opacity="0.5">
<g clip-path="url(#clip0_1014_3976)">
<path d="M32.817 17.1416C31.7966 17.1416 30.851 16.958 29.9803 16.5908C29.1232 16.2099 28.3817 15.6862 27.7557 15.0197C27.1435 14.3397 26.6606 13.5439 26.3068 12.6326C25.9667 11.7077 25.7965 10.6943 25.7965 9.59264C25.7965 8.49094 25.9599 7.51836 26.2863 6.59338C26.6128 5.6549 27.0753 4.84553 27.6741 4.16547C28.2864 3.47181 29.021 2.93446 29.8781 2.55363C30.7488 2.15919 31.7217 1.96197 32.7966 1.96197C33.6945 1.96197 34.4973 2.09119 35.2047 2.34961C35.9122 2.59443 36.5176 2.94126 37.0211 3.3901C37.538 3.82534 37.9461 4.34228 38.2454 4.94074C38.5447 5.53919 38.7354 6.18535 38.8168 6.87901H35.8782C35.7421 6.14454 35.4086 5.5596 34.8779 5.12436C34.3474 4.67552 33.6536 4.45109 32.7964 4.45109C32.116 4.45109 31.5242 4.58711 31.0208 4.85913C30.5311 5.11755 30.1228 5.47799 29.7964 5.94043C29.4697 6.40287 29.225 6.94701 29.0616 7.57267C28.8983 8.19842 28.8169 8.87168 28.8169 9.59255C28.8169 10.3134 28.9052 11.0276 29.0822 11.6532C29.2725 12.279 29.5379 12.823 29.8779 13.2855C30.2318 13.7343 30.6536 14.0879 31.1433 14.3464C31.6468 14.5912 32.2047 14.7136 32.8168 14.7136C33.6875 14.7136 34.4018 14.4824 34.9597 14.0199C35.5311 13.5439 35.8644 12.9182 35.9596 12.1429H38.8577C38.8167 12.7957 38.6604 13.4215 38.3882 14.0199C38.1161 14.6048 37.7353 15.1285 37.2454 15.591C36.7421 16.067 36.1297 16.4479 35.4086 16.7336C34.7012 17.0056 33.8372 17.1416 32.8168 17.1416H32.817ZM39.8496 6.36887H42.625V16.8355H39.8496V6.36887ZM39.8496 2.24751H42.625V4.73663H39.8496V2.24751ZM43.4951 6.36887H44.9441V3.10438H47.6583V6.36887H49.4544V8.20513H47.6583V13.7547C47.6583 14.1492 47.7537 14.4212 47.944 14.5708C48.1347 14.7204 48.3862 14.7952 48.6993 14.7952H49.2298C49.3251 14.7952 49.4205 14.7884 49.5155 14.7748V16.8151C49.3796 16.8287 49.2298 16.8355 49.0665 16.8355C48.9169 16.8491 48.7333 16.8559 48.5154 16.8559H47.7808C47.4408 16.8559 47.1004 16.8219 46.7604 16.7539C46.4339 16.6723 46.1347 16.5363 45.8625 16.3458C45.5904 16.1554 45.3658 15.897 45.1889 15.5706C45.0257 15.2441 44.944 14.8361 44.944 14.3464V8.20513H43.495V6.36887H43.4951ZM53.251 8.04191H53.3121C53.625 7.44346 53.9789 6.99452 54.3735 6.6953C54.7681 6.39607 55.2714 6.24646 55.8835 6.24646C56.1692 6.24646 56.387 6.27366 56.5367 6.32806V8.75598H56.4755C55.5638 8.66077 54.8156 8.85799 54.2305 9.34763C53.6455 9.83728 53.353 10.633 53.353 11.7347V16.8355H50.5774V6.36887H53.251V8.04191ZM62.0457 17.1416C61.175 17.1416 60.3993 16.9988 59.719 16.7132C59.0524 16.4275 58.4878 16.0399 58.0251 15.5502C57.5625 15.0469 57.2089 14.4552 56.964 13.7751C56.7326 13.0951 56.6172 12.3673 56.6172 11.592C56.6172 10.8168 56.7394 10.0958 56.9844 9.42933C57.243 8.74927 57.5966 8.16433 58.0458 7.67468C58.5083 7.18504 59.0525 6.7974 59.6784 6.51168C60.3179 6.22606 61.0186 6.08324 61.7804 6.08324C62.624 6.08324 63.3654 6.23966 64.005 6.55248C64.6443 6.85171 65.1818 7.28015 65.6172 7.8379C66.0525 8.39555 66.3791 9.0621 66.5968 9.83737C66.8282 10.599 66.9437 11.4492 66.9437 12.3877H59.3518C59.4608 13.2039 59.7329 13.8431 60.1682 14.3056C60.6172 14.768 61.2361 14.9992 62.0254 14.9992C62.5697 14.9992 63.005 14.8836 63.3315 14.6524C63.6579 14.4212 63.8961 14.1083 64.0457 13.7139H66.7804C66.6853 14.1764 66.5083 14.6185 66.2497 15.0401C66.005 15.4482 65.6783 15.8087 65.2704 16.1215C64.8757 16.4343 64.4062 16.6792 63.8622 16.856C63.3179 17.0464 62.7125 17.1416 62.0458 17.1416H62.0457ZM61.8211 8.22553C61.0865 8.22553 60.5287 8.42955 60.1476 8.83759C59.7668 9.23202 59.5151 9.77607 59.3926 10.4698H64.0457C64.005 9.80337 63.7804 9.26603 63.3722 8.85799C62.9776 8.43635 62.4608 8.22553 61.8211 8.22553ZM74.5142 16.8356C74.4325 16.7268 74.3644 16.5636 74.3101 16.3459C74.2557 16.1283 74.2147 15.9039 74.1876 15.6727H74.1469C74.0108 15.8767 73.8544 16.0671 73.6775 16.2439C73.5141 16.4071 73.3101 16.55 73.0651 16.6724C72.8339 16.7948 72.555 16.89 72.2283 16.958C71.9019 17.0396 71.5141 17.0804 71.0651 17.0804C69.9904 17.0804 69.1126 16.8084 68.4326 16.2643C67.7522 15.7203 67.412 14.9245 67.412 13.8772C67.412 13.306 67.5209 12.8231 67.7387 12.4286C67.9563 12.0342 68.2556 11.7077 68.6366 11.4492C69.0177 11.1908 69.4598 10.9936 69.9631 10.8576C70.4802 10.7079 71.0313 10.5923 71.6163 10.5107C72.487 10.3883 73.1266 10.2591 73.5348 10.1231C73.9427 9.98708 74.147 9.72186 74.147 9.32742C74.147 8.93298 73.9973 8.64736 73.698 8.42974C73.4123 8.19852 72.977 8.08291 72.392 8.08291C71.7388 8.08291 71.2489 8.20532 70.9224 8.45014C70.5959 8.68136 70.4124 9.04859 70.3713 9.55194H67.9021C67.9157 9.08949 68.0177 8.65425 68.2082 8.24612C68.3985 7.82448 68.6775 7.45725 69.045 7.14433C69.4124 6.8315 69.875 6.57988 70.4328 6.38946C70.9906 6.19904 71.6503 6.10383 72.4124 6.10383C73.977 6.10383 75.0994 6.44386 75.7796 7.12402C76.4735 7.79048 76.8205 8.73586 76.8205 9.95997V15.2851C76.8205 16.074 76.943 16.5569 77.1878 16.7338V16.8358H74.5145L74.5142 16.8356ZM71.7385 15.1421C72.1332 15.1421 72.48 15.0877 72.7793 14.9789C73.0922 14.8565 73.3507 14.7069 73.555 14.5301C73.7726 14.3397 73.9358 14.1288 74.0447 13.8976C74.1536 13.6528 74.2079 13.4012 74.2079 13.1427V11.5716C73.9631 11.7212 73.6639 11.8436 73.31 11.9389C72.97 12.0205 72.6229 12.1021 72.2692 12.1837C71.5346 12.3469 70.9903 12.5373 70.6365 12.7549C70.2828 12.9726 70.1058 13.3262 70.1058 13.8159C70.1058 14.3057 70.2554 14.6524 70.5549 14.8564C70.8542 15.0468 71.2486 15.142 71.7385 15.142V15.1421ZM10.8333 7.15122C10.2952 7.15122 9.81335 6.87306 9.54428 6.40722L5.90544 0.106445H15.7612L12.1224 6.40722C11.8533 6.87306 11.3715 7.15122 10.8333 7.15122ZM14.2016 9.09554C13.6634 9.09554 13.1815 8.81737 12.9124 8.35144C12.6434 7.88559 12.6434 7.32927 12.9124 6.86333L16.5512 0.562748L21.4791 9.09554H14.2015H14.2016ZM5.90544 18.997L9.54428 12.6964C9.81335 12.2305 10.2952 11.9524 10.8333 11.9524C11.3715 11.9524 11.8533 12.2305 12.1224 12.6964L15.7612 18.997H5.90544ZM12.9125 12.2403C12.6434 11.7744 12.6434 11.2181 12.9125 10.7521C13.1816 10.2863 13.6635 10.0081 14.2017 10.0081H21.4793L16.5514 18.5408L12.9126 12.2404L12.9125 12.2403ZM0.1875 9.09554L5.1155 0.562748L8.75415 6.86333C9.02332 7.32917 9.02332 7.8855 8.75415 8.35144C8.48508 8.81737 8.00314 9.09554 7.46499 9.09554H0.1875ZM0.1875 10.008H7.46509C8.00324 10.008 8.48517 10.2862 8.75425 10.7521C9.02332 11.218 9.02332 11.7743 8.75425 12.2402L5.11559 18.5406L0.1875 10.008Z" fill="#FF83EE" style="fill:#FF83EE;fill:color(display-p3 1.0000 0.5144 0.9350);fill-opacity:1;"/>
</g>
</g>
<defs>
<clipPath id="clip0_1014_3976">
<rect width="77" height="18.8906" fill="white" style="fill:white;fill-opacity:1;" transform="translate(0.1875 0.106445)"/>
</clipPath>
</defs>
</svg>
