<svg viewBox="0 0 124 24" fill="none" xmlns="http://www.w3.org/2000/svg">
<g opacity="0.5">
<g clip-path="url(#clip0_1014_3957)">
<path fill-rule="evenodd" clip-rule="evenodd" d="M14.4795 16.699L12.7929 14.9903C12.1517 15.5875 11.5045 16.061 10.8487 16.41C10.1945 16.759 9.41115 16.9327 8.50018 16.9327C7.78832 16.9327 7.13027 16.7943 6.52449 16.5168C5.92944 16.2464 5.39561 15.8578 4.95547 15.3746C4.50763 14.8801 4.15943 14.3038 3.92996 13.6774C3.68498 13.011 3.56232 12.3058 3.56788 11.5958C3.56788 10.8556 3.68857 10.1646 3.92996 9.52427C4.17289 8.88397 4.51421 8.32515 4.95547 7.84858C5.39811 7.37094 5.9315 6.98629 6.52449 6.7171C7.14491 6.43619 7.81915 6.29401 8.50018 6.30048C9.35349 6.30048 10.1146 6.47113 10.7841 6.81318C11.4529 7.15447 12.0872 7.6026 12.6845 8.15835L14.3734 6.21439C14.0194 5.87435 13.6412 5.56043 13.2418 5.27508C12.8341 4.98526 12.3974 4.73848 11.9388 4.5387C11.4414 4.32358 10.9223 4.16252 10.3905 4.05828C9.7751 3.93914 9.14931 3.88172 8.52247 3.88687C7.38319 3.88687 6.3446 4.0898 5.40442 4.49565C4.49066 4.8836 3.66329 5.44958 2.97056 6.16058C2.28359 6.87059 1.7429 7.70869 1.37925 8.62724C0.998154 9.58499 0.80577 10.6074 0.81268 11.6381C0.81268 12.7196 1.00487 13.7304 1.38924 14.6697C1.75521 15.5805 2.2958 16.4108 2.98055 17.1141C3.66615 17.8108 4.48218 18.3658 5.38213 18.7475C6.3077 19.1472 7.31938 19.3455 8.41485 19.3455C9.11287 19.3455 9.7494 19.2848 10.326 19.1641C10.8762 19.0521 11.4107 18.873 11.9173 18.6307C12.3959 18.3988 12.8502 18.1196 13.2733 17.7974C13.7059 17.4659 14.1094 17.0982 14.4795 16.6982M48.3637 8.11992C48.3637 7.62259 48.5759 7.19982 49.001 6.85161C49.4254 6.50418 50.0204 6.32969 50.7845 6.32969C51.4641 6.32969 52.1375 6.4619 52.8025 6.72402C53.4674 6.9869 54.1401 7.36662 54.8197 7.86395L56.2211 5.8831C55.4847 5.28815 54.6565 4.81695 53.7688 4.48797C52.8978 4.1682 51.9176 4.00832 50.8268 4.00832C50.0911 4.00832 49.4115 4.11132 48.7919 4.31732C48.1692 4.52332 47.6388 4.81772 47.1952 5.20129C46.7557 5.58177 46.4002 6.04956 46.1512 6.5749C45.8999 7.10758 45.7723 7.70099 45.7723 8.35359C45.7723 9.05 45.8822 9.6388 46.102 10.1215C46.3212 10.6027 46.6497 11.0259 47.0614 11.3575C47.4789 11.6981 47.9993 11.9825 48.6143 12.21C49.2339 12.4367 49.9389 12.6427 50.7353 12.8272C51.4295 12.9979 51.9914 13.1608 52.4266 13.3169C52.8586 13.4737 53.1984 13.6397 53.4498 13.818C53.6973 13.9948 53.868 14.1901 53.9594 14.403C54.0517 14.6167 54.0978 14.858 54.0978 15.1278C54.0978 15.7105 53.861 16.1717 53.3867 16.5122C52.9116 16.8535 52.2713 17.0234 51.4649 17.0234C50.5301 17.0234 49.6944 16.8566 48.9587 16.523C48.2215 16.1894 47.4927 15.7105 46.7709 15.0856L45.1995 16.9596C46.0913 17.769 47.0614 18.3693 48.1085 18.7598C49.1616 19.1513 50.2767 19.3497 51.4003 19.3455C52.179 19.3455 52.8947 19.2456 53.5451 19.0473C54.1931 18.8482 54.752 18.5569 55.2133 18.1741C55.6754 17.7917 56.0465 17.3112 56.2995 16.7674C56.5578 16.214 56.6885 15.5821 56.6885 14.8719C56.6885 14.247 56.5863 13.7035 56.381 13.2423C56.171 12.7763 55.8617 12.3618 55.4747 12.0278C55.078 11.6804 54.5752 11.386 53.9741 11.1439C53.3721 10.9033 52.6787 10.6826 51.8992 10.4843C51.306 10.3466 50.7192 10.183 50.1403 9.99392C49.6806 9.83788 49.3193 9.66724 49.054 9.48276C48.7919 9.29828 48.6112 9.0992 48.5121 8.88628C48.4129 8.67336 48.3637 8.41739 48.3637 8.11992ZM77.4363 8.33053V18.9835H80.0308V4.129H77.2441L72.7139 11.1531L68.1829 4.129H65.3969V18.9835H67.9914V8.37358L72.6501 15.3331H72.7346L77.4363 8.33053ZM101.833 11.6381C101.833 12.3645 101.709 13.0509 101.461 13.6981C101.227 14.3214 100.876 14.8941 100.427 15.3854C99.9796 15.8666 99.4392 16.2516 98.8383 16.5168C98.2202 16.7943 97.5422 16.9334 96.8034 16.9334C96.0984 16.9405 95.4002 16.7947 94.757 16.5061C94.1489 16.2333 93.6018 15.8412 93.148 15.3531C92.6946 14.8592 92.34 14.2831 92.1033 13.6559C91.853 12.998 91.7266 12.2996 91.7304 11.5958C91.7304 10.8694 91.855 10.183 92.1033 9.5358C92.3371 8.91255 92.688 8.33983 93.1373 7.84858C93.5839 7.36737 94.1241 6.98236 94.7247 6.7171C95.3428 6.43961 96.0216 6.30048 96.7604 6.30048C97.4991 6.30048 98.1818 6.44269 98.8068 6.72786C99.4318 7.01227 99.9684 7.3966 100.416 7.88086C100.869 8.3746 101.224 8.95075 101.461 9.57808C101.711 10.2359 101.837 10.9343 101.833 11.6381ZM104.582 11.5958C104.582 10.5428 104.391 9.54579 104.007 8.60571C103.64 7.69129 103.097 6.85755 102.409 6.15136C101.726 5.45341 100.91 4.90228 99.9576 4.49642C99.0051 4.09056 97.9542 3.88764 96.8034 3.88764C95.6518 3.88764 94.601 4.09441 93.6485 4.50718C92.7241 4.90129 91.8846 5.47028 91.1762 6.18288C90.4784 6.88959 89.9279 7.72774 89.5564 8.64876C89.1706 9.59819 88.975 10.6141 88.9806 11.6389C88.9806 12.6919 89.1728 13.6874 89.5564 14.6274C89.9239 15.5422 90.4669 16.3763 91.1546 17.0826C91.8365 17.7797 92.6537 18.3316 93.6062 18.7375C94.5579 19.1426 95.6096 19.3455 96.7604 19.3455C97.9112 19.3455 98.9628 19.1388 99.9145 18.7267C100.839 18.3329 101.679 17.7639 102.388 17.0511C103.086 16.3442 103.636 15.5057 104.007 14.5844C104.391 13.6451 104.582 12.6489 104.582 11.5958ZM115.487 8.11992C115.487 7.62259 115.699 7.19982 116.124 6.85161C116.55 6.50418 117.144 6.32969 117.909 6.32969C118.6 6.33203 119.285 6.46585 119.926 6.72402C120.592 6.9869 121.264 7.36662 121.944 7.86395L123.345 5.8831C122.609 5.28804 121.78 4.81684 120.892 4.48797C120.022 4.1682 119.041 4.00832 117.951 4.00832C117.214 4.00832 116.535 4.11132 115.915 4.31732C115.293 4.52332 114.762 4.81772 114.319 5.20129C113.88 5.58178 113.524 6.04955 113.275 6.5749C113.024 7.10758 112.896 7.70099 112.896 8.35359C112.896 9.05 113.006 9.6388 113.225 10.1215C113.445 10.6025 113.773 11.0257 114.185 11.3575C114.602 11.6981 115.123 11.9825 115.738 12.21C116.432 12.459 117.14 12.6651 117.859 12.8272C118.553 12.9979 119.116 13.1608 119.551 13.3169C119.983 13.4737 120.323 13.6397 120.574 13.818C120.821 13.9948 120.991 14.1901 121.084 14.403C121.176 14.6167 121.222 14.858 121.222 15.1278C121.222 15.7105 120.984 16.1717 120.51 16.5122C120.036 16.8535 119.395 17.0234 118.588 17.0234C117.653 17.0234 116.818 16.8566 116.082 16.523C115.346 16.1894 114.617 15.7105 113.894 15.0856L112.323 16.9596C113.215 17.769 114.185 18.3693 115.233 18.7598C116.28 19.1503 117.377 19.3455 118.524 19.3455C119.303 19.3455 120.018 19.2456 120.669 19.0473C121.317 18.8482 121.876 18.5569 122.337 18.1741C122.799 17.7918 123.17 17.3113 123.423 16.7674C123.681 16.214 123.813 15.5821 123.813 14.8719C123.813 14.247 123.71 13.7035 123.504 13.2423C123.295 12.7762 122.985 12.3616 122.598 12.0278C122.202 11.6804 121.699 11.386 121.097 11.1439C120.496 10.9033 119.802 10.6826 119.023 10.4843C118.43 10.3466 117.843 10.1829 117.264 9.99392C116.804 9.83788 116.443 9.66724 116.177 9.48276C115.915 9.29828 115.735 9.0992 115.636 8.88628C115.537 8.67336 115.487 8.41739 115.487 8.11992ZM32.2799 7.10297L25.1698 14.2031C24.7571 13.3962 24.5441 12.5021 24.5486 11.5958C24.5486 10.8725 24.6731 10.1884 24.9214 9.54349C25.1551 8.92218 25.5058 8.3515 25.9546 7.86241C26.4015 7.38297 26.9414 6.99955 27.5413 6.73555C28.1594 6.45883 28.8375 6.32047 29.5755 6.32047C30.5342 6.3102 31.4748 6.58234 32.2799 7.10297ZM31.6526 16.4984C31.0353 16.7751 30.3573 16.9135 29.6185 16.9135C28.66 16.923 27.7198 16.6507 26.9148 16.1302L34.0242 9.03078C34.4403 9.83642 34.6535 10.7314 34.6454 11.6381C34.6494 12.3393 34.5233 13.0353 34.2733 13.6904C34.0397 14.3115 33.6889 14.882 33.2401 15.3707C32.7931 15.8506 32.2529 16.2343 31.6526 16.4984ZM32.7289 18.6998C33.6524 18.3075 34.4914 17.7403 35.1996 17.0295C35.8963 16.3261 36.4464 15.4913 36.8179 14.5736C37.2022 13.6374 37.3936 12.6443 37.3936 11.5958C37.4027 9.98015 36.9083 8.40176 35.9791 7.07991L40.6032 2.46176L38.7659 0.626953L34.1272 5.25894C33.7004 4.96984 33.2462 4.72345 32.7712 4.52332C31.8194 4.11901 30.7686 3.91685 29.6193 3.91685C28.4685 3.91685 27.4176 4.12285 26.4659 4.53409C25.5424 4.92631 24.7035 5.49321 23.9951 6.20363C23.2981 6.90727 22.7478 7.74231 22.3761 8.66029C21.9909 9.60556 21.7955 10.6174 21.8011 11.6381C21.7922 13.2537 22.2866 14.8321 23.2156 16.154L18.5916 20.7714L20.4289 22.6062L25.0675 17.975C25.4842 18.2586 25.9362 18.5031 26.4236 18.7106C27.3753 19.1142 28.4254 19.3163 29.5755 19.3163C30.7263 19.3163 31.7772 19.1103 32.7289 18.6998Z" fill="#FF83EE" style="fill:#FF83EE;fill:color(display-p3 1.0000 0.5144 0.9350);fill-opacity:1;"/>
</g>
</g>
<defs>
<clipPath id="clip0_1014_3957">
<rect width="123" height="23.06" fill="white" style="fill:white;fill-opacity:1;" transform="translate(0.8125 0.0263672)"/>
</clipPath>
</defs>
</svg>
