<svg viewBox="0 0 93 25" fill="none" xmlns="http://www.w3.org/2000/svg">
<g opacity="0.5">
<g clip-path="url(#clip0_1014_3945)">
<g clip-path="url(#clip1_1014_3945)">
<path d="M10.125 1.64084C10.125 1.15284 10.544 0.756836 11.061 0.756836C11.578 0.756836 11.998 1.15284 11.998 1.64084V11.1708C11.998 11.6588 11.579 12.0548 11.061 12.0548C10.544 12.0548 10.125 11.6588 10.125 11.1708V1.64084ZM12.533 5.43084C12.533 4.95084 12.945 4.56184 13.452 4.56184C13.961 4.56184 14.372 4.95084 14.372 5.43084V14.6358C14.372 15.1158 13.961 15.5048 13.453 15.5048C12.945 15.5048 12.533 15.1158 12.533 14.6358V5.43084Z" fill="#FF83EE" style="fill:#FF83EE;fill:color(display-p3 1.0000 0.5144 0.9350);fill-opacity:1;"/>
<path d="M14.9219 11.8963C14.9219 11.4163 15.3339 11.0273 15.8409 11.0273C16.3499 11.0273 16.7609 11.4163 16.7609 11.8963V21.4633C16.7609 21.9433 16.3489 22.3313 15.8419 22.3313C15.3339 22.3313 14.9219 21.9423 14.9219 21.4633V11.8963Z" fill="#FF83EE" style="fill:#FF83EE;fill:color(display-p3 1.0000 0.5144 0.9350);fill-opacity:1;"/>
<path d="M5.29413 11.8965C5.29413 11.4165 5.70612 11.0275 6.21312 11.0275C6.72212 11.0275 7.13312 11.4165 7.13312 11.8965V21.4635C7.13312 21.9435 6.72213 22.3315 6.21413 22.3315C5.70613 22.3315 5.29413 21.9425 5.29413 21.4635V11.8965ZM2.87212 15.8275C2.87212 15.3475 3.28312 14.9585 3.79112 14.9585C4.29912 14.9585 4.71112 15.3485 4.71112 15.8275V23.4875C4.71112 23.9675 4.29912 24.3565 3.79212 24.3565C3.28312 24.3565 2.87212 23.9675 2.87212 23.4875V15.8275ZM17.3421 15.8275C17.3421 15.3475 17.7541 14.9585 18.2621 14.9585C18.7701 14.9585 19.1821 15.3485 19.1821 15.8275V23.4875C19.1821 23.9675 18.7701 24.3565 18.2621 24.3565C17.7541 24.3565 17.3431 23.9675 17.3431 23.4875V15.8275H17.3421ZM10.1421 15.9435C10.1421 15.4635 10.5531 15.0745 11.0611 15.0745C11.5691 15.0745 11.9811 15.4645 11.9811 15.9435V23.4695C11.9811 23.9495 11.5691 24.3385 11.0611 24.3385C10.5531 24.3385 10.1421 23.9495 10.1421 23.4695V15.9435ZM7.70813 16.9505C7.70813 16.4705 8.12012 16.0815 8.62712 16.0815C9.13513 16.0815 9.54712 16.4705 9.54712 16.9505V19.5425C9.54712 20.0225 9.13513 20.4115 8.62712 20.4115C8.12012 20.4115 7.70813 20.0225 7.70813 19.5425V16.9505ZM12.5331 16.9505C12.5331 16.4705 12.9451 16.0815 13.4521 16.0815C13.9611 16.0815 14.3721 16.4705 14.3721 16.9505V19.5425C14.3721 20.0225 13.9611 20.4115 13.4531 20.4115C12.9451 20.4115 12.5331 20.0225 12.5331 19.5425V16.9505ZM19.7611 21.2805C19.7611 20.8005 20.1731 20.4115 20.6801 20.4115C21.1891 20.4115 21.6001 20.8005 21.6001 21.2805V21.4635C21.6001 21.9435 21.1891 22.3315 20.6811 22.3315C20.1731 22.3315 19.7611 21.9425 19.7611 21.4635V21.2805ZM0.453125 21.2805C0.453125 20.8005 0.865125 20.4115 1.37313 20.4115C1.88112 20.4115 2.29213 20.8005 2.29213 21.2805V21.4635C2.29213 21.9435 1.88112 22.3315 1.37313 22.3315C0.865125 22.3315 0.453125 21.9425 0.453125 21.4635V21.2805ZM10.1421 13.4685C10.1421 12.9885 10.5531 12.5995 11.0611 12.5995C11.5691 12.5995 11.9811 12.9885 11.9811 13.4685V13.6515C11.9811 14.1315 11.5691 14.5205 11.0611 14.5205C10.5531 14.5205 10.1421 14.1315 10.1421 13.6515V13.4685ZM7.70813 5.43052C7.70813 4.95052 8.12012 4.56152 8.62712 4.56152C9.13513 4.56152 9.54712 4.95052 9.54712 5.43052V14.6355C9.54712 15.1155 9.13513 15.5045 8.62712 15.5045C8.12012 15.5045 7.70813 15.1155 7.70813 14.6355V5.43052Z" fill="#FF83EE" style="fill:#FF83EE;fill:color(display-p3 1.0000 0.5144 0.9350);fill-opacity:1;"/>
</g>
</g>
<path d="M37.2268 10.6153H35.7726C35.7167 10.3046 35.6126 10.0312 35.4604 9.79501C35.3081 9.55886 35.1217 9.35844 34.9011 9.19376C34.6804 9.02907 34.4334 8.90478 34.16 8.82089C33.8896 8.73699 33.6022 8.69505 33.2977 8.69505C32.7477 8.69505 32.2552 8.83332 31.8202 9.10986C31.3883 9.38641 31.0465 9.7919 30.7948 10.3263C30.5463 10.8608 30.422 11.5133 30.422 12.2839C30.422 13.0607 30.5463 13.7164 30.7948 14.2508C31.0465 14.7852 31.3899 15.1892 31.8249 15.4626C32.2599 15.7361 32.7493 15.8728 33.2931 15.8728C33.5945 15.8728 33.8803 15.8324 34.1507 15.7516C34.4241 15.6677 34.6711 15.545 34.8917 15.3834C35.1123 15.2218 35.2988 15.0245 35.451 14.7915C35.6064 14.5553 35.7136 14.285 35.7726 13.9805L37.2268 13.9851C37.1491 14.4543 36.9984 14.8862 36.7747 15.2809C36.5541 15.6724 36.2698 16.0111 35.9218 16.2969C35.5769 16.5797 35.1823 16.7987 34.7379 16.9541C34.2936 17.1095 33.8089 17.1871 33.2837 17.1871C32.4572 17.1871 31.7208 16.9914 31.0745 16.5999C30.4282 16.2053 29.9186 15.6413 29.5457 14.908C29.176 14.1747 28.9911 13.3 28.9911 12.2839C28.9911 11.2647 29.1775 10.39 29.5504 9.65985C29.9233 8.92654 30.4328 8.36412 31.0791 7.97261C31.7255 7.57799 32.4603 7.38068 33.2837 7.38068C33.7902 7.38068 34.2625 7.4537 34.7006 7.59974C35.1419 7.74268 35.538 7.95397 35.8892 8.23362C36.2403 8.51017 36.5308 8.84885 36.7607 9.24969C36.9907 9.64742 37.146 10.1026 37.2268 10.6153ZM38.9502 17.0566V7.51119H42.3526C43.0921 7.51119 43.7058 7.63858 44.1937 7.89338C44.6846 8.14817 45.0513 8.50084 45.2936 8.95139C45.536 9.39884 45.6572 9.91619 45.6572 10.5035C45.6572 11.0876 45.5344 11.6019 45.289 12.0462C45.0466 12.4874 44.6799 12.8308 44.189 13.0763C43.7012 13.3217 43.0875 13.4445 42.348 13.4445H39.7705V12.2047H42.2175C42.6835 12.2047 43.0626 12.1379 43.3547 12.0043C43.6499 11.8706 43.8658 11.6764 44.0026 11.4217C44.1393 11.1669 44.2076 10.8608 44.2076 10.5035C44.2076 10.143 44.1377 9.83074 43.9979 9.56663C43.8612 9.30251 43.6452 9.10054 43.35 8.96072C43.058 8.81778 42.6742 8.74632 42.1988 8.74632H40.3904V17.0566H38.9502ZM43.6623 12.75L46.0207 17.0566H44.3801L42.0683 12.75H43.6623ZM46.3272 7.51119H47.9631L50.4567 11.8505H50.5592L53.0528 7.51119H54.6888L51.2257 13.3093V17.0566H49.7902V13.3093L46.3272 7.51119ZM56.0486 17.0566V7.51119H59.451C60.1936 7.51119 60.8089 7.64635 61.2967 7.91668C61.7845 8.18701 62.1496 8.55677 62.392 9.02597C62.6344 9.49205 62.7556 10.0172 62.7556 10.6013C62.7556 11.1886 62.6328 11.7168 62.3874 12.186C62.145 12.6521 61.7783 13.0219 61.2874 13.2953C60.7995 13.5657 60.1859 13.7008 59.4463 13.7008H57.1066V12.4797H59.3158C59.785 12.4797 60.1657 12.3989 60.4578 12.2373C60.7498 12.0726 60.9642 11.8489 61.101 11.5661C61.2377 11.2834 61.306 10.9618 61.306 10.6013C61.306 10.2409 61.2377 9.92085 61.101 9.6412C60.9642 9.36155 60.7483 9.14249 60.4531 8.98402C60.161 8.82555 59.7757 8.74632 59.2972 8.74632H57.4888V17.0566H56.0486ZM63.9732 8.75098V7.51119H71.3607V8.75098H68.3824V17.0566H66.9468V8.75098H63.9732ZM74.4334 7.51119V17.0566H72.9932V7.51119H74.4334ZM81.7369 10.0187C81.6872 9.5775 81.4821 9.23571 81.1217 8.99334C80.7613 8.74787 80.3076 8.62513 79.7607 8.62513C79.3692 8.62513 79.0305 8.68728 78.7447 8.81157C78.4588 8.93275 78.2366 9.10054 78.0782 9.31494C77.9228 9.52623 77.8451 9.76705 77.8451 10.0374C77.8451 10.2642 77.8979 10.46 78.0036 10.6246C78.1123 10.7893 78.2537 10.9276 78.4277 11.0395C78.6048 11.1482 78.7944 11.2399 78.9963 11.3145C79.1983 11.3859 79.3925 11.445 79.579 11.4916L80.5111 11.7339C80.8156 11.8085 81.1279 11.9095 81.448 12.0369C81.768 12.1643 82.0648 12.3321 82.3382 12.5403C82.6116 12.7484 82.8322 13.0063 83 13.314C83.1709 13.6216 83.2564 13.9898 83.2564 14.4186C83.2564 14.9593 83.1166 15.4393 82.8369 15.8588C82.5604 16.2783 82.158 16.6092 81.6297 16.8516C81.1046 17.0939 80.4692 17.2151 79.7234 17.2151C79.0088 17.2151 78.3904 17.1017 77.8684 16.8749C77.3464 16.648 76.9378 16.3264 76.6426 15.9101C76.3474 15.4906 76.1843 14.9934 76.1532 14.4186H77.5981C77.6261 14.7635 77.7379 15.0509 77.9337 15.2809C78.1325 15.5077 78.3858 15.677 78.6934 15.7889C79.0041 15.8976 79.3444 15.952 79.7141 15.952C80.1212 15.952 80.4832 15.8883 80.8001 15.7609C81.1202 15.6304 81.3718 15.4502 81.5552 15.2203C81.7385 14.9872 81.8302 14.7153 81.8302 14.4046C81.8302 14.1218 81.7494 13.8904 81.5878 13.7101C81.4293 13.5299 81.2134 13.3808 80.9399 13.2627C80.6696 13.1446 80.3635 13.0405 80.0217 12.9504L78.8938 12.6428C78.1294 12.4346 77.5235 12.1286 77.0761 11.7246C76.6317 11.3207 76.4096 10.7862 76.4096 10.1213C76.4096 9.57129 76.5587 9.09122 76.857 8.68106C77.1553 8.27091 77.5592 7.95241 78.0688 7.72559C78.5784 7.49565 79.1533 7.38068 79.7934 7.38068C80.4397 7.38068 81.0098 7.4941 81.5039 7.72092C82.0011 7.94775 82.3926 8.26003 82.6784 8.65776C82.9643 9.05238 83.1134 9.50604 83.1259 10.0187H81.7369ZM84.5067 8.75098V7.51119H91.8941V8.75098H88.9158V17.0566H87.4803V8.75098H84.5067Z" fill="#FF83EE" style="fill:#FF83EE;fill:color(display-p3 1.0000 0.5144 0.9350);fill-opacity:1;"/>
</g>
<defs>
<clipPath id="clip0_1014_3945">
<rect width="22" height="24" fill="white" style="fill:white;fill-opacity:1;" transform="translate(0.25 0.556641)"/>
</clipPath>
<clipPath id="clip1_1014_3945">
<rect width="21.554" height="24" fill="white" style="fill:white;fill-opacity:1;" transform="translate(0.25 0.556641)"/>
</clipPath>
</defs>
</svg>
