<svg viewBox="0 0 84 37" fill="none" xmlns="http://www.w3.org/2000/svg">
<g opacity="0.5">
<g clip-path="url(#clip0_1014_3929)">
<path d="M3.34384 16.9693L8.63039 3.63965L13.917 16.9693H3.34384Z" fill="#FF83EE" stroke="white" style="fill:#FF83EE;fill:color(display-p3 1.0000 0.5144 0.9350);fill-opacity:1;stroke:white;stroke-opacity:1;" stroke-width="0.170753"/>
<path d="M6.58715 16.9704H3.34375L8.44219 4.11426L6.58715 16.9704ZM10.6736 16.9704H13.917L8.81851 4.11426L10.6736 16.9704ZM13.6137 18.0603V19.0054C13.504 19.0254 13.4048 19.0833 13.3333 19.1689C13.2619 19.2546 13.2227 19.3625 13.2227 19.474V20.4997H13.6137V21.2896H3.64697V20.4997H4.23079V19.5953C4.23079 19.4393 4.16971 19.2894 4.06061 19.1778C3.95151 19.0661 3.80305 19.0016 3.64697 18.9979V18.0603H13.6137Z" fill="#FF83EE" stroke="white" style="fill:#FF83EE;fill:color(display-p3 1.0000 0.5144 0.9350);fill-opacity:1;stroke:white;stroke-opacity:1;" stroke-width="0.170753"/>
<path d="M13.6127 17.9189V19.0046C13.5013 19.0246 13.4006 19.0831 13.328 19.1699C13.2554 19.2567 13.2156 19.3662 13.2156 19.4794V20.4988H13.6127V21.2781H10.3672V17.9189H13.6127Z" fill="#FF83EE" stroke="white" style="fill:#FF83EE;fill:color(display-p3 1.0000 0.5144 0.9350);fill-opacity:1;stroke:white;stroke-opacity:1;" stroke-width="0.170753"/>
<path d="M6.89071 17.9795H10.5031V21.1933H6.89062V17.9795H6.89071Z" fill="#FF83EE" stroke="white" style="fill:#FF83EE;fill:color(display-p3 1.0000 0.5144 0.9350);fill-opacity:1;stroke:white;stroke-opacity:1;" stroke-width="0.170753"/>
<path d="M5.84413 19.2677V20.3124H5.03129V19.2677C5.03051 19.2138 5.04045 19.1604 5.06052 19.1104C5.0806 19.0604 5.11041 19.0149 5.14822 18.9766C5.18604 18.9382 5.23111 18.9078 5.28081 18.887C5.3305 18.8662 5.38384 18.8555 5.43771 18.8555C5.49158 18.8555 5.54492 18.8662 5.59462 18.887C5.64431 18.9078 5.68938 18.9382 5.7272 18.9766C5.76501 19.0149 5.79483 19.0604 5.8149 19.1104C5.83497 19.1604 5.84491 19.2138 5.84413 19.2677ZM9.03655 19.2953V20.3401H8.2238V19.2953C8.22598 19.189 8.26976 19.0878 8.34573 19.0134C8.4217 18.939 8.52382 18.8973 8.63018 18.8973C8.73654 18.8973 8.83866 18.939 8.91463 19.0134C8.9906 19.0878 9.03438 19.189 9.03655 19.2953ZM12.24 19.2953V20.3401H11.4272V19.2953C11.4287 19.1886 11.4722 19.0868 11.5483 19.0118C11.6243 18.9369 11.7268 18.8949 11.8336 18.8949C11.9404 18.8949 12.0429 18.9369 12.1189 19.0118C12.195 19.0868 12.2384 19.1886 12.24 19.2953Z" fill="white" stroke="white" style="fill:white;fill-opacity:1;stroke:white;stroke-opacity:1;" stroke-width="0.170753"/>
<path d="M1.22656 21.9551H15.9429V23.1848L8.62919 27.5379L1.22665 23.163L1.22656 21.9551Z" fill="#FF83EE" stroke="white" style="fill:#FF83EE;fill:color(display-p3 1.0000 0.5144 0.9350);fill-opacity:1;stroke:white;stroke-opacity:1;" stroke-width="0.170753"/>
<path d="M10.4297 23.2118V22.0225H15.9503V23.1849L10.4297 26.4714V23.2118Z" fill="#FF83EE" stroke="white" style="fill:#FF83EE;fill:color(display-p3 1.0000 0.5144 0.9350);fill-opacity:1;stroke:white;stroke-opacity:1;" stroke-width="0.170753"/>
<path d="M6.67969 21.8652H10.728V26.3027L8.61422 27.572L6.67969 26.4079V21.8652Z" fill="#FF83EE" stroke="white" style="fill:#FF83EE;fill:color(display-p3 1.0000 0.5144 0.9350);fill-opacity:1;stroke:white;stroke-opacity:1;" stroke-width="0.170753"/>
<path d="M7.75492 24.4821C7.75492 23.9991 8.14669 23.6074 8.62992 23.6074C9.11315 23.6074 9.50483 23.9991 9.50483 24.4821V26.7807H7.75492V24.4821ZM11.7286 24.4821C11.7286 23.9991 12.1204 23.6074 12.6036 23.6074C13.0868 23.6074 13.4785 23.999 13.4785 24.482V24.7409L11.7286 25.7801V24.4821ZM3.78125 24.482C3.78125 23.999 4.17294 23.6074 4.65625 23.6074C5.13948 23.6074 5.53117 23.9991 5.53117 24.4821V25.787L3.78125 24.7602V24.482Z" fill="white" style="fill:white;fill-opacity:1;"/>
<path d="M2.87798 17.0156H14.4865V17.97H2.87798V17.0156ZM0.359375 20.9934H16.9111V22.0773H0.359375V20.9934Z" fill="#FF83EE" stroke="white" style="fill:#FF83EE;fill:color(display-p3 1.0000 0.5144 0.9350);fill-opacity:1;stroke:white;stroke-opacity:1;" stroke-width="0.170753"/>
<path d="M8.625 29.6893V36.2266L16.6313 24.9238L8.625 29.6893Z" fill="#FF83EE" style="fill:#FF83EE;fill:color(display-p3 1.0000 0.5144 0.9350);fill-opacity:1;"/>
<path d="M8.62191 29.6896L0.554688 24.9238L8.62208 36.2273V29.6896H8.62191ZM8.63139 0.62793L9.50648 1.70843L8.63139 2.78894L7.7563 1.70843L8.63139 0.62793Z" fill="#FF83EE" style="fill:#FF83EE;fill:color(display-p3 1.0000 0.5144 0.9350);fill-opacity:1;"/>
<path d="M8.66035 29.6998V36.374M8.65232 29.6939L0.429688 24.7764L8.65232 36.3344L16.8391 24.7764L8.65232 29.6939Z" stroke="white" style="stroke:white;stroke-opacity:1;" stroke-width="0.170753"/>
<path d="M22.7188 22.2139V14.6533H27.9579V15.6202H23.8203V17.9166H27.0444V18.8432H23.8203V21.3008H28.0922V22.2139H22.7188ZM32.1523 14.8951V22.2139H31.0374V14.8951H32.1523ZM28.6999 15.6202V14.6533H34.4764V15.6202H28.6999ZM36.6665 22.2139H35.5515V14.6533H36.6665V22.2139ZM40.616 14.6533H41.7176V22.2139H40.616V14.6533ZM41.2474 18.7761H36.0888V17.9032H41.2474V18.7761ZM44.3903 21.9723V14.8951H45.4919V21.9723H44.3903ZM43.3559 22.2139V21.247H46.5129V22.2139H43.3559ZM43.3559 15.6202V14.6533H46.5129V15.6202H43.3559ZM50.2118 22.3483C49.9616 22.3484 49.7128 22.3122 49.473 22.2408C49.2413 22.1787 49.0196 22.0837 48.8147 21.9588C48.6204 21.8356 48.4402 21.6915 48.2774 21.5291C48.1251 21.3679 48.0042 21.1933 47.9147 21.0054C47.8343 20.8094 47.7932 20.5995 47.7938 20.3876H48.8416C48.8416 20.3966 48.8461 20.4592 48.855 20.5756C48.873 20.692 48.9222 20.8263 49.0028 20.9785C49.0834 21.1217 49.2133 21.247 49.3924 21.3545C49.5804 21.462 49.8446 21.5157 50.185 21.5157C50.4447 21.5157 50.6641 21.4843 50.8432 21.4217C51.0313 21.359 51.1746 21.2739 51.2731 21.1665C51.3716 21.0501 51.4164 20.9113 51.4075 20.7502C51.4075 20.5264 51.3223 20.3518 51.1522 20.2264C50.982 20.1011 50.7626 20.0026 50.4939 19.931C50.2139 19.8474 49.9317 19.7713 49.6476 19.7028C49.358 19.6331 49.0749 19.5387 48.8013 19.4207C48.5326 19.2954 48.3132 19.1297 48.143 18.9238C47.9818 18.709 47.9058 18.4225 47.9147 18.0644C47.9147 17.5809 48.1162 17.2094 48.5192 16.9497C48.9311 16.6812 49.4506 16.5468 50.0775 16.5468C50.382 16.5468 50.6775 16.5827 50.9641 16.6543C51.2507 16.7259 51.5059 16.8378 51.7298 16.99C51.9627 17.1422 52.1463 17.3437 52.2806 17.5943C52.424 17.845 52.4911 18.1539 52.4821 18.5209H51.4478C51.4567 18.2882 51.4164 18.1002 51.3269 17.9569C51.2462 17.8137 51.1343 17.7062 50.991 17.6346C50.8494 17.5546 50.6948 17.5001 50.5343 17.4735C50.382 17.4377 50.2342 17.4197 50.0909 17.4197C49.7327 17.4197 49.4506 17.4869 49.2446 17.6212C49.0386 17.7465 48.9356 17.9166 48.9356 18.1315C48.9356 18.3553 49.0207 18.5299 49.1909 18.6553C49.3611 18.7806 49.5804 18.8791 49.8492 18.9507C50.1347 19.0265 50.4213 19.0982 50.7089 19.1656C51.0134 19.2372 51.3 19.3357 51.5687 19.461C51.8373 19.5774 52.0567 19.743 52.2269 19.9579C52.3971 20.1728 52.4821 20.4592 52.4821 20.8173C52.4821 21.1665 52.3836 21.453 52.1866 21.6768C51.9985 21.9007 51.7343 22.0707 51.394 22.1871C51.0537 22.2945 50.6596 22.3483 50.2118 22.3483ZM54.9966 22.2139C54.6205 22.2139 54.3429 22.1155 54.1638 21.9185C53.9846 21.7216 53.8951 21.4217 53.8951 21.0188V17.3929H54.9563V21.3276H56.2326V22.2139H54.9966ZM53.0488 17.5272V16.7215C53.2547 16.7215 53.4204 16.708 53.5458 16.6812C53.6801 16.6543 53.7787 16.6006 53.8414 16.52C53.913 16.4305 53.9623 16.2917 53.9891 16.1037C54.016 15.9068 54.0294 15.6427 54.0294 15.3114H54.9563V16.7215H56.2191V17.5272H53.0488ZM59.2285 22.3348C58.7269 22.3348 58.315 22.2139 57.9926 21.9723C57.6791 21.7305 57.4462 21.3992 57.294 20.9785C57.1507 20.5577 57.079 20.0742 57.079 19.5281C57.079 18.9641 57.1552 18.4717 57.3075 18.0509C57.4597 17.6212 57.6926 17.2855 58.006 17.0437C58.3284 16.8021 58.7359 16.6812 59.2285 16.6812C59.5329 16.6812 59.7927 16.7259 60.0076 16.8155C60.2225 16.896 60.4017 16.999 60.545 17.1243C60.6883 17.2497 60.8046 17.3794 60.8942 17.5137C60.9838 17.6391 61.0465 17.751 61.0823 17.8495H61.1092V16.7215H62.2511V22.2139H61.2973L61.1092 21.2336H61.0823C61.0465 21.3321 60.9838 21.4441 60.8942 21.5694C60.8046 21.6947 60.6838 21.8156 60.5316 21.932C60.3883 22.0483 60.2091 22.1423 59.9942 22.2139C59.7793 22.2945 59.524 22.3348 59.2285 22.3348ZM59.6718 21.3814C60.03 21.3814 60.3121 21.3053 60.5181 21.1531C60.724 20.9919 60.8718 20.7726 60.9614 20.4951C61.051 20.2175 61.0957 19.8997 61.0957 19.5416C61.0957 19.1566 61.0465 18.8253 60.948 18.5478C60.8584 18.2703 60.7106 18.0599 60.5047 17.9166C60.2987 17.7644 60.021 17.6884 59.6718 17.6884C59.3046 17.6884 59.009 17.7734 58.7852 17.9435C58.5702 18.1047 58.4134 18.324 58.315 18.6015C58.2254 18.8791 58.1807 19.1879 58.1807 19.5281C58.1807 19.8773 58.2254 20.1951 58.315 20.4816C58.4134 20.7591 58.5702 20.9785 58.7852 21.1397C59.009 21.3008 59.3046 21.3814 59.6718 21.3814ZM63.2374 22.2139V16.7215H64.1913L64.3794 17.9972H64.4062C64.4151 17.9614 64.451 17.8763 64.5137 17.7421C64.5764 17.6078 64.6793 17.4646 64.8226 17.3124C64.9659 17.1512 65.1585 17.0124 65.4003 16.896C65.6421 16.7796 65.9466 16.7215 66.3138 16.7215C66.6989 16.7215 67.0123 16.7841 67.2541 16.9094C67.5049 17.0259 67.7019 17.187 67.8452 17.3929C67.9975 17.5899 68.105 17.8137 68.1677 18.0644C68.2311 18.3108 68.2716 18.5626 68.2886 18.8164C68.3065 19.0671 68.3154 19.3043 68.3154 19.5281V22.2139H67.2272V19.5147C67.2272 19.1745 67.1915 18.8701 67.1198 18.6015C67.0482 18.324 66.9183 18.1091 66.7303 17.9569C66.5422 17.7958 66.26 17.7152 65.884 17.7152C65.5078 17.7152 65.2077 17.8047 64.9839 17.9838C64.7689 18.1628 64.6122 18.3956 64.5137 18.6821C64.4241 18.9597 64.3794 19.2641 64.3794 19.5953V22.2139H63.2374ZM72.5612 22.3483C72.2209 22.3483 71.9298 22.2945 71.688 22.1871C71.4462 22.0707 71.2492 21.9364 71.0969 21.7842C70.9446 21.632 70.8327 21.4933 70.7611 21.3679C70.7155 21.2833 70.6707 21.1982 70.6267 21.1128H70.5998L70.4252 22.2139H69.458V14.6533H70.6133V18.0106H70.6401C70.6491 17.9749 70.685 17.8897 70.7477 17.7555C70.8193 17.6212 70.9267 17.4735 71.0701 17.3124C71.2134 17.1512 71.4059 17.0124 71.6477 16.896C71.8985 16.7796 72.203 16.7215 72.5612 16.7215C73.0986 16.7215 73.5374 16.8424 73.8777 17.084C74.218 17.3168 74.4733 17.6481 74.6435 18.0778C74.8135 18.4985 74.8987 18.991 74.8987 19.555C74.8987 20.1011 74.8135 20.5845 74.6435 21.0054C74.4822 21.4261 74.227 21.7574 73.8777 21.9991C73.5374 22.2319 73.0986 22.3483 72.5612 22.3483ZM72.2388 21.3814C72.6328 21.3814 72.9418 21.2963 73.1657 21.1263C73.3985 20.9472 73.5597 20.7189 73.6493 20.4413C73.7479 20.1548 73.7971 19.855 73.7971 19.5416C73.7971 19.2282 73.7433 18.9328 73.6359 18.6553C73.5374 18.3777 73.3672 18.1539 73.1254 17.9838C72.8926 17.8137 72.5791 17.7287 72.185 17.7287C71.8448 17.7287 71.5582 17.8047 71.3253 17.9569C71.0925 18.1002 70.9178 18.3106 70.8014 18.5881C70.685 18.8656 70.6267 19.1835 70.6267 19.5416C70.6267 19.9086 70.685 20.231 70.8014 20.5085C70.9267 20.786 71.1104 21.0009 71.3521 21.1531C71.594 21.3053 71.8895 21.3814 72.2388 21.3814ZM77.8588 22.3483C77.4916 22.3483 77.1826 22.2901 76.9318 22.1736C76.6901 22.0573 76.493 21.9007 76.3408 21.7036C76.1975 21.5067 76.0901 21.2873 76.0184 21.0457C75.946 20.8001 75.8965 20.5483 75.8706 20.2936C75.8442 20.0438 75.8308 19.7928 75.8303 19.5416V16.7215H76.9318V19.5416C76.9318 19.8638 76.9632 20.1638 77.0259 20.4413C77.0886 20.7099 77.2185 20.9292 77.4155 21.0994C77.6125 21.2695 77.9036 21.3545 78.2887 21.3545C78.6648 21.3545 78.9559 21.2695 79.1618 21.0994C79.3679 20.9203 79.5112 20.6965 79.5918 20.4279C79.6813 20.159 79.7311 19.8785 79.7395 19.5953V16.7215H80.8948V22.2139H79.941L79.7529 21.0725H79.7261C79.6992 21.162 79.6455 21.2785 79.5649 21.4217C79.4843 21.556 79.3723 21.6947 79.229 21.838C79.0857 21.9812 78.8976 22.102 78.6649 22.2005C78.441 22.299 78.1722 22.3483 77.8588 22.3483ZM82.1324 22.2139V14.6533H83.2339V22.2139H82.1324Z" fill="#FF83EE" style="fill:#FF83EE;fill:color(display-p3 1.0000 0.5144 0.9350);fill-opacity:1;"/>
</g>
</g>
<defs>
<clipPath id="clip0_1014_3929">
<rect width="83" height="35.94" fill="white" style="fill:white;fill-opacity:1;" transform="translate(0.25 0.586914)"/>
</clipPath>
</defs>
</svg>
