<svg viewBox="0 0 68 16" fill="none" xmlns="http://www.w3.org/2000/svg">
<g opacity="0.5">
<g clip-path="url(#clip0_1014_3968)">
<mask id="mask0_1014_3968" style="mask-type:luminance" maskUnits="userSpaceOnUse" x="0" y="0" width="68" height="16">
<path d="M0.8125 0.0566406H67.1664V15.0566H0.8125V0.0566406Z" fill="white" style="fill:white;fill-opacity:1;"/>
</mask>
<g mask="url(#mask0_1014_3968)">
<path d="M31.5469 13.9565V0.0566406H33.4734V13.1281H41.0106L40.9681 0.0707835L42.9378 0.0566406V13.9565C42.9377 14.2484 42.8218 14.5282 42.6155 14.7345C42.5133 14.8367 42.392 14.9178 42.2585 14.973C42.125 15.0283 41.982 15.0567 41.8375 15.0566H32.6454C32.354 15.0562 32.0746 14.9402 31.8686 14.7339C31.6626 14.5276 31.5469 14.2481 31.5469 13.9565Z" fill="#FF83EE" style="fill:#FF83EE;fill:color(display-p3 1.0000 0.5144 0.9350);fill-opacity:1;"/>
<path d="M57.469 13.9565V0.0566406H59.3957V13.1281H67.1664V15.0566H58.5691C58.2773 15.0566 57.9974 14.9408 57.7913 14.7344C57.6891 14.6323 57.608 14.5111 57.5527 14.3776C57.4974 14.2441 57.469 14.101 57.469 13.9565ZM19.6697 15.0566H21.5968V8.54236H28.8566V6.61378H21.5951V1.98521H28.7367C28.8407 1.98522 28.9425 1.95574 29.0304 1.90019C29.1184 1.84464 29.1887 1.76529 29.2333 1.67137L30.0009 0.0566406H20.768C20.4766 0.0571854 20.1973 0.173324 19.9914 0.379573C19.7855 0.585822 19.6698 0.865336 19.6697 1.15678V15.0566ZM45.0381 1.15678C45.0381 1.01227 45.0668 0.869212 45.1221 0.735755C45.1774 0.602319 45.2583 0.481048 45.3604 0.378841C45.4626 0.276789 45.5839 0.195776 45.7173 0.140383C45.8508 0.0850832 45.9938 0.0566265 46.1382 0.0566406H55.3692L54.6017 1.67137C54.5571 1.76534 54.4868 1.84472 54.3989 1.90028C54.3109 1.95584 54.2091 1.98529 54.1051 1.98521H46.9648V6.61378H54.225V8.54236H46.9648V13.1281H55.3692V15.0566H46.1382C45.8465 15.0565 45.5667 14.9407 45.3604 14.7344C45.1541 14.5281 45.0382 14.2483 45.0381 13.9565V1.15678ZM1.80987 0.0566406C1.54541 0.0566406 1.29178 0.161682 1.10474 0.348668C0.917711 0.535653 0.812591 0.789272 0.8125 1.05375L0.8125 15.0566H13.2224C13.6424 15.0566 14.0451 14.8898 14.3421 14.5928L15.3474 13.5874C15.4945 13.4404 15.6111 13.2658 15.6907 13.0737C15.7703 12.8815 15.8112 12.6756 15.8112 12.4676V0.0566406H1.80987ZM3.24272 1.98521H10.6055L5.72788 6.86334C5.60671 6.9843 5.44252 7.05228 5.27132 7.05238C5.14903 7.05237 5.02927 7.01764 4.92595 6.95224C4.82262 6.88683 4.73999 6.79344 4.68765 6.68291L2.7979 2.68717C2.76247 2.61219 2.74658 2.52948 2.75169 2.44671C2.75681 2.36394 2.78276 2.28381 2.82715 2.21377C2.87153 2.14372 2.93291 2.08604 3.00557 2.04608C3.07822 2.00612 3.1598 1.98518 3.24272 1.98521ZM2.74091 13.1281V8.38164C2.74098 8.26005 2.78934 8.14347 2.87534 8.05753C2.96134 7.97159 3.07795 7.92332 3.19952 7.92333H7.9452L2.74091 13.1281ZM9.15508 6.71368C8.93802 6.93045 8.64384 7.05226 8.3371 7.05238H6.76566L11.4937 2.32425C11.6011 2.21678 11.7286 2.13151 11.869 2.07334C12.0094 2.01516 12.1598 1.98522 12.3118 1.98521H13.8828L9.15508 6.71368Z" fill="#FF83EE" style="fill:#FF83EE;fill:color(display-p3 1.0000 0.5144 0.9350);fill-opacity:1;"/>
</g>
</g>
</g>
<defs>
<clipPath id="clip0_1014_3968">
<rect width="66.38" height="15" fill="white" style="fill:white;fill-opacity:1;" transform="translate(0.8125 0.0566406)"/>
</clipPath>
</defs>
</svg>
