<svg viewBox="0 0 144 17" fill="none" xmlns="http://www.w3.org/2000/svg">
<g opacity="0.5">
<g clip-path="url(#clip0_1014_3953)">
<path d="M27.334 1.05629L27.3593 1.04284V1.04014C27.815 0.794685 28.3296 0.670898 28.9054 0.670898C29.2761 0.670898 29.6707 0.722989 30.0892 0.8289L30.09 0.828996C30.928 1.0264 31.6802 1.35874 32.3469 1.82717L32.3474 1.82756C33.0117 2.27841 33.5873 2.84753 34.0458 3.50656L34.0462 3.50714C34.527 4.17307 34.8914 4.93683 35.1402 5.80027L35.1405 5.80123C35.4049 6.64842 35.5368 7.56577 35.5368 8.55116C35.5368 9.73386 35.3342 10.8091 34.9311 11.7775C34.5276 12.7319 33.9683 13.5567 33.2546 14.2523L33.2541 14.2527C32.5563 14.9494 31.7329 15.4867 30.7859 15.8645L30.7858 15.8646C29.8388 16.2436 28.8749 16.4326 27.7564 16.4326C26.6373 16.4326 25.6037 16.2434 24.6571 15.8646C23.71 15.4854 22.8866 14.9482 22.1887 14.2527C21.491 13.5573 20.9475 12.7253 20.5587 11.7562C20.17 10.7728 19.9759 9.68985 19.9759 8.50695C19.9759 7.78134 20.0928 7.04794 20.3256 6.30541C20.558 5.56567 20.9217 4.89301 21.418 4.2883C21.9297 3.66975 22.5802 3.16365 23.3718 2.77028L23.3724 2.76999C24.1619 2.36307 25.1161 2.13491 26.2353 2.08974L26.2612 2.08878L26.2746 2.06648C26.535 1.63236 26.8879 1.29627 27.334 1.05629ZM32.0641 5.23909L32.0644 5.2389C31.8124 4.83977 31.529 4.49445 31.2132 4.20199C30.9132 3.90963 30.5881 3.67869 30.2402 3.50838C29.9061 3.3376 29.5787 3.25187 29.2573 3.25187C28.9392 3.25187 28.6916 3.31751 28.5232 3.45697C28.3529 3.59786 28.2712 3.80738 28.2712 4.07619C28.2712 4.37835 28.3865 4.6859 28.6088 4.99575C28.83 5.30397 29.1067 5.58921 29.4385 5.85044L29.4394 5.8512L29.4404 5.85188C29.7869 6.0982 30.1654 6.30464 30.5744 6.47398L30.5754 6.47437L30.5765 6.47475C31.0025 6.62833 31.4066 6.7057 31.7883 6.7057C31.9313 6.7057 32.0728 6.69705 32.2151 6.68215L32.2178 6.68186L32.2204 6.68129C32.3621 6.65102 32.4996 6.60364 32.6299 6.5402L32.6671 6.52194L32.6545 6.48234C32.5151 6.04303 32.3165 5.62476 32.0641 5.23909ZM24.4287 4.87888L24.4226 4.88225L24.421 4.88378C24.0118 5.11473 23.6641 5.42228 23.3806 5.80709C23.0962 6.17749 22.8828 6.60209 22.7403 7.07927C22.598 7.55568 22.5273 8.03247 22.5273 8.50935C22.5273 9.30705 22.6607 10.0369 22.9294 10.6981L22.9295 10.6985C23.1968 11.3431 23.5682 11.8968 24.0415 12.359C24.5145 12.8208 25.0667 13.1822 25.6975 13.4432L25.6984 13.4436C26.3297 13.6899 27.0077 13.8124 27.7319 13.8124C28.3782 13.8124 28.993 13.7122 29.5758 13.513L29.5768 13.5126C30.1603 13.2975 30.6799 13.0056 31.1379 12.6367L31.138 12.6366C31.6125 12.2513 31.9989 11.7905 32.2986 11.2518C32.6145 10.6968 32.8186 10.0827 32.9138 9.40652L32.921 9.35549L32.8697 9.35183C32.0143 9.29081 31.1982 9.12483 30.4214 8.85179C29.644 8.56365 28.9452 8.20748 28.3236 7.78336C27.7177 7.34443 27.1976 6.85226 26.763 6.308C26.345 5.7648 26.0676 5.19219 25.9282 4.59027L25.9198 4.55404L25.8828 4.55308C25.3443 4.53818 24.8588 4.6463 24.4287 4.87888ZM132.063 14.817C130.894 14.0546 130.21 12.9843 130.191 11.7338H132.556C132.579 12.3624 133.037 12.8893 133.786 13.2591C134.553 13.6387 135.637 13.859 136.907 13.859C138.177 13.859 139.261 13.6387 140.029 13.2591C140.797 12.8799 141.259 12.3356 141.259 11.6857C141.259 11.2452 141.13 10.9031 140.894 10.6377C140.661 10.3733 140.327 10.1885 139.926 10.0552C139.124 9.78961 138.037 9.72387 136.893 9.65477H136.892C135.402 9.56442 133.813 9.46716 132.596 8.92675C131.989 8.65717 131.477 8.27821 131.116 7.73645C130.755 7.19479 130.543 6.48648 130.543 5.55394C130.543 4.33482 131.196 3.29454 132.318 2.55711C133.442 1.8191 135.034 1.38584 136.907 1.38584C138.674 1.38584 140.178 1.81891 141.24 2.55644C142.288 3.28368 142.903 4.30627 142.919 5.50598H140.555C140.534 4.9402 140.148 4.46129 139.52 4.12357C138.874 3.77614 137.966 3.57326 136.906 3.57326C135.742 3.57326 134.746 3.77604 134.039 4.1228C133.334 4.46898 132.906 4.96499 132.906 5.55394C132.906 5.98604 133.036 6.32242 133.27 6.58431C133.502 6.84506 133.836 7.02833 134.235 7.16163C135.031 7.42708 136.112 7.49955 137.251 7.57586L137.259 7.57634C138.751 7.67648 140.344 7.78374 141.564 8.32771C142.173 8.59912 142.688 8.97826 143.049 9.51772C143.411 10.057 143.624 10.7603 143.624 11.6845C143.624 12.9556 142.936 14.0439 141.751 14.8166C140.567 15.5897 138.886 16.0451 136.907 16.0451C134.929 16.0451 133.248 15.59 132.063 14.817ZM40.0839 15.6821H37.6721V1.72549H40.0839C40.8224 1.72549 41.42 1.71694 42.0171 1.70838H42.0172C42.6144 1.69973 43.2112 1.69118 43.9491 1.69118C48.0328 1.69118 50.9288 4.60286 50.9288 8.70561C50.9288 12.8076 47.9637 15.7544 43.7737 15.7544C43.0448 15.7544 42.4966 15.7376 41.95 15.7195L41.9487 15.7182L41.9297 15.7176L41.8515 15.7152C41.324 15.6988 40.7869 15.6821 40.0839 15.6821ZM40.0358 13.3596V13.4051L40.0813 13.4076C41.3648 13.4775 42.8936 13.5131 43.7737 13.5131C45.1735 13.5131 46.3677 13.017 47.212 12.1662C48.0562 11.3154 48.5478 10.1126 48.5478 8.70436C48.5478 7.29667 48.074 6.10291 47.2606 5.26081C46.447 4.41872 45.2965 3.93126 43.9491 3.93126C42.4379 3.93126 40.838 3.96682 40.0817 4.00123L40.0358 4.00334V13.3596ZM72.9539 10.4568V15.7494H70.5901V1.79171H78.4478C81.5236 1.79171 83.6702 3.55346 83.6702 6.02968C83.6702 8.50974 81.6234 10.4087 78.6943 10.4087H72.9539V10.4568ZM72.9539 8.1206V8.16865H78.6231C80.1667 8.16865 81.2892 7.29599 81.2892 6.02968C81.2892 5.44063 80.9894 4.93943 80.4844 4.58719C79.9804 4.23554 79.2718 4.03179 78.4478 4.03179H72.9539V8.1206ZM85.0142 12.3954L85.0565 12.3231H85.0558C85.5912 11.4279 86.2566 10.6477 87.023 9.96654L87.0424 9.95184L87.0425 9.95174L87.1086 9.90157L87.1089 9.90128L87.1287 9.88591C87.2449 9.79624 87.3552 9.71109 87.4644 9.61479L87.4796 9.60133L87.4807 9.58115C87.4964 9.25726 87.5428 8.90234 87.5919 8.52781L87.6028 8.44419C87.8131 7.20133 88.1809 5.99287 88.7062 4.85543L88.7064 4.85514C89.2281 3.70848 89.9057 2.75038 90.706 1.79171H93.4458L99.7279 15.7494H97.1092L91.7634 3.99008L91.7283 3.91281L91.6802 3.98268C91.2911 4.54644 90.9562 5.12895 90.6742 5.74606L90.6739 5.74674C90.2863 6.62756 89.9859 7.54472 89.8097 8.47966L89.7966 8.54914L89.8661 8.53569C90.4037 8.4316 90.9246 8.44842 91.4279 8.5527C92.43 8.76048 93.3494 9.50397 93.7824 10.4921L93.7827 10.4927C94.1635 11.3245 94.1623 12.239 93.7488 12.9792V12.9794C93.4045 13.6007 92.8177 14.0676 92.0905 14.2923L92.0902 14.2924C91.4319 14.5001 90.7062 14.483 90.0841 14.2406L90.0828 14.2402C89.1655 13.9115 88.3838 13.1659 87.9324 12.1927L87.9012 12.1255L87.8526 12.1813C87.4986 12.587 87.1807 13.0295 86.8988 13.4876L86.8982 13.4885C86.4804 14.2016 86.2 14.9659 86.0395 15.7482H83.7662C83.9832 14.7202 84.483 13.3037 85.0142 12.3954ZM89.7886 10.7977L89.7368 10.8156L89.7613 10.8646C89.7655 10.8731 89.7676 10.8809 89.7708 10.8927L89.7737 10.9034L89.7745 10.9071C89.7782 10.9245 89.7837 10.9461 89.7938 10.9674C89.9737 11.5539 90.3673 12.042 90.8242 12.2066L90.8247 12.2068C91.0108 12.2717 91.2227 12.2713 91.4063 12.2231C91.5886 12.1752 91.7516 12.0776 91.831 11.9392C91.9493 11.7419 91.8693 11.5278 91.8179 11.3905L91.8174 11.3891L91.8167 11.3872L91.8158 11.3854C91.6522 11.0404 91.3076 10.7471 90.9747 10.6735L90.9735 10.6733L90.9723 10.6731C90.7553 10.6365 90.3606 10.6008 89.7886 10.7977ZM104.183 13.5266H112.524V15.7494H101.773V1.79171H104.135V13.5266H104.183ZM8.13009 6.86341L8.14873 6.83371L8.12625 6.8069C6.91228 5.3648 5.28354 3.96192 3.38053 3.96192H3.33248V15.7494H0.96875V1.79171H3.38053C5.85458 1.79171 7.93337 3.32597 9.45928 4.99037L9.49532 5.02968L9.53068 4.98979C11.038 3.28907 13.0812 1.79171 15.4679 1.79171H17.8798V15.7494H15.5159V3.99623H15.4679C13.9187 3.99623 12.343 4.99287 10.88 6.78912L10.8575 6.8167L10.8773 6.84621C11.8769 8.33665 12.8717 10.4695 12.8717 12.4238C12.8717 13.4861 12.554 14.334 11.9914 14.9161C11.4289 15.498 10.6166 15.8193 9.61737 15.8193C8.58263 15.8193 7.74847 15.485 7.17282 14.8812C6.59688 14.2773 6.27474 13.3986 6.27474 12.3012C6.27474 10.4003 7.18291 8.37134 8.13009 6.86341ZM9.57105 8.86985L9.52828 8.79297L9.48676 8.87053C8.83481 10.0858 8.44482 11.3239 8.44482 12.3012C8.44482 12.7421 8.50614 13.0816 8.68825 13.3104C8.87277 13.542 9.17165 13.6492 9.61737 13.6492C10.0357 13.6492 10.313 13.5558 10.4824 13.3457C10.6494 13.1386 10.7016 12.8292 10.7016 12.4238C10.7016 11.4288 10.2757 10.1377 9.57105 8.86985ZM58.433 1.69003H61.861V1.81506L61.9227 1.73491L68.2162 15.7225H65.5845L63.7787 11.7479L63.7659 11.7197H56.6006V11.7672L56.558 11.7479L54.7511 15.7225H52.1193L58.433 1.69003ZM57.6016 9.45102L57.5707 9.51897H62.7685L62.7376 9.45102L60.2226 3.91771L60.2098 3.88955H60.1294L60.1166 3.91771L57.6016 9.45102ZM116.854 15.7225H114.224L120.539 1.69003H123.967V1.81506L124.028 1.73491L130.322 15.7225H127.69L125.883 11.7479L125.871 11.7197H118.674L118.661 11.7479L116.854 15.7225ZM122.262 3.88955H122.231L122.219 3.91771L119.704 9.45102L119.673 9.51897H124.869L124.838 9.45102L122.323 3.91771L122.31 3.88955H122.262Z" fill="#FF83EE" stroke="#FF83EE" style="fill:#FF83EE;fill:color(display-p3 1.0000 0.5144 0.9350);fill-opacity:1;stroke:#FF83EE;stroke:color(display-p3 1.0000 0.5144 0.9350);stroke-opacity:1;" stroke-width="0.0960957"/>
</g>
</g>
<defs>
<clipPath id="clip0_1014_3953">
<rect width="143" height="16.05" fill="white" style="fill:white;fill-opacity:1;" transform="translate(0.8125 0.526367)"/>
</clipPath>
</defs>
</svg>
