<svg viewBox="0 0 58 23" fill="none" xmlns="http://www.w3.org/2000/svg">
<g opacity="0.5">
<g clip-path="url(#clip0_1014_3960)">
<g clip-path="url(#clip1_1014_3960)">
<path d="M11.757 22.5566C17.767 22.5566 22.639 17.6316 22.639 11.5566C22.639 5.48164 17.767 0.556641 11.757 0.556641C5.747 0.556641 0.875 5.48164 0.875 11.5566C0.875 17.6316 5.747 22.5566 11.757 22.5566Z" fill="#FF83EE" style="fill:#FF83EE;fill:color(display-p3 1.0000 0.5144 0.9350);fill-opacity:1;"/>
<path d="M15.4757 6.69629H8.04365C6.67765 6.69629 5.81165 8.18529 6.49865 9.39029L11.0847 17.4263C11.3847 17.9503 12.1347 17.9503 12.4337 17.4263L17.0207 9.39029C17.7077 8.18829 16.8417 6.69629 15.4757 6.69629ZM11.0817 15.0163L10.0827 13.0623L7.67265 8.70429C7.51365 8.42529 7.71065 8.06729 8.04365 8.06729H11.0807V15.0173L11.0817 15.0163ZM15.8447 8.70329L13.4357 13.0633L12.4367 15.0163V8.06729H15.4747C15.8077 8.06729 16.0037 8.42529 15.8447 8.70329Z" fill="white" style="fill:white;fill-opacity:1;"/>
<path d="M29.5038 17.6336H31.9408V9.04063H35.3108V6.70062H26.1328V9.04063H29.5038V17.6336ZM41.1688 17.8176C44.2448 17.8176 46.7588 15.2766 46.7588 12.1666C46.7588 9.05562 44.2448 6.51562 41.1688 6.51562C38.0758 6.51562 35.5778 9.05562 35.5778 12.1666C35.5778 15.2776 38.0758 17.8176 41.1688 17.8176ZM41.1688 15.4466C39.4008 15.4466 38.0148 13.9376 38.0148 12.1666C38.0148 10.3956 39.4008 8.88662 41.1688 8.88662C42.9198 8.88662 44.3058 10.3956 44.3058 12.1666C44.3058 13.9376 42.9198 15.4466 41.1688 15.4466ZM57.8808 17.6336V6.70062H55.4438V13.4446L50.1888 6.70062H48.1018V17.6336H50.5238V10.8726L55.7938 17.6326L57.8808 17.6336Z" fill="#FF83EE" style="fill:#FF83EE;fill:color(display-p3 1.0000 0.5144 0.9350);fill-opacity:1;"/>
</g>
</g>
</g>
<defs>
<clipPath id="clip0_1014_3960">
<rect width="57" height="22" fill="white" style="fill:white;fill-opacity:1;" transform="translate(0.8125 0.556641)"/>
</clipPath>
<clipPath id="clip1_1014_3960">
<rect width="57" height="22" fill="white" style="fill:white;fill-opacity:1;" transform="translate(0.8125 0.556641)"/>
</clipPath>
</defs>
</svg>
